<svg xmlns:inkscape="http://www.inkscape.org/namespaces/inkscape" xmlns:sodipodi="http://sodipodi.sourceforge.net/DTD/sodipodi-0.dtd" xmlns="http://www.w3.org/2000/svg" xmlns:svg="http://www.w3.org/2000/svg" version="1.1" id="svg279" sodipodi:docname="OpenWoods_Logo_Salmon_Light_Blue.svg" inkscape:version="1.2.1 (9c6d41e, 2022-07-14)" xml:space="preserve" viewBox="4.31 46.04 196.48 196.48"><sodipodi:namedview id="namedview281" pagecolor="#ffffff" bordercolor="#666666" borderopacity="1.0" inkscape:showpageshadow="2" inkscape:pageopacity="0.0" inkscape:pagecheckerboard="0" inkscape:deskcolor="#d1d1d1" inkscape:document-units="mm" showgrid="false" inkscape:zoom="0.31709947" inkscape:cx="484.07523" inkscape:cy="684.32785" inkscape:window-width="1440" inkscape:window-height="746" inkscape:window-x="0" inkscape:window-y="25" inkscape:window-maximized="0" inkscape:current-layer="layer1"/><defs id="defs276"/><path style="opacity:1;fill:#fe7159;stroke-width:0.204026;fill-opacity:1" d="m 33.357184,242.28429 c -0.07448,-0.1205 -0.439467,-0.18359 -0.811089,-0.14025 -0.392152,0.0457 -0.625569,-0.003 -0.556257,-0.1144 0.07172,-0.11616 -0.180003,-0.14461 -0.630955,-0.0714 -0.447656,0.0726 -0.702532,0.0443 -0.631753,-0.0701 0.06519,-0.10555 -0.06272,-0.19193 -0.284466,-0.19193 -0.221702,0 -0.438292,0.10554 -0.481311,0.23461 -0.04297,0.12907 -0.211335,0.19009 -0.374046,0.13561 -0.20531,-0.0686 -0.108601,-0.20122 0.316247,-0.43311 l 0.612067,-0.33415 -0.71409,0.12878 c -0.392746,0.0709 -0.744696,0.20607 -0.782096,0.30049 -0.03746,0.0944 -0.163408,0.1717 -0.280008,0.1717 -0.349059,0 0.261192,-0.61039 0.628037,-0.62819 0.20756,-0.0102 0.237367,-0.0545 0.07956,-0.11819 -0.138944,-0.0562 -0.544016,0.0433 -0.900234,0.22104 -0.816578,0.40735 -1.021596,0.2607 -0.24242,-0.17342 l 0.579109,-0.32266 -0.61208,0.1343 c -0.336646,0.0737 -0.642687,0.21183 -0.680087,0.30669 -0.03746,0.0948 -0.175125,0.16941 -0.30604,0.16568 -0.130959,-0.004 -0.0087,-0.19959 0.272037,-0.43523 l 0.510058,-0.42843 -0.510058,0.15615 c -0.280531,0.086 -0.540663,0.23583 -0.578078,0.3332 -0.03746,0.0974 -0.175125,0.174 -0.30604,0.17028 -0.13096,-0.004 -0.0087,-0.19959 0.272037,-0.43521 l 0.510073,-0.42844 -0.510073,0.15615 c -0.280531,0.0858 -0.540663,0.23582 -0.578063,0.33321 -0.03746,0.0974 -0.175125,0.174 -0.30604,0.17026 -0.13096,-0.004 -0.0087,-0.19958 0.272022,-0.43522 l 0.510072,-0.42843 -0.510072,0.15614 c -0.280531,0.0858 -0.540663,0.23584 -0.578063,0.33321 -0.03746,0.0974 -0.175125,0.17401 -0.306041,0.17028 -0.130958,-0.004 -0.0087,-0.19959 0.272038,-0.43523 l 0.510058,-0.42842 -0.484607,0.15104 c -0.310134,0.0967 -0.438582,0.0765 -0.356768,-0.0559 0.07695,-0.12457 -0.03456,-0.1644 -0.280488,-0.10004 -0.224576,0.0588 -0.408325,0.18789 -0.408325,0.28701 0,0.0992 -0.114843,0.17719 -0.255036,0.17346 -0.140251,-0.004 -0.03833,-0.18737 0.226623,-0.40807 0.588256,-0.49006 0.31147,-0.53196 -0.385255,-0.0584 l -0.504454,0.34295 0.396609,-0.45374 c 0.392805,-0.44937 0.392805,-0.45232 0,-0.30681 -0.21813,0.0809 -0.474124,0.24542 -0.568873,0.36583 -0.103664,0.13183 -0.126603,0.0768 -0.05735,-0.13808 0.06316,-0.19636 0.03354,-0.35704 -0.06577,-0.35704 -0.09931,0 -0.215095,0.10337 -0.257214,0.22981 -0.08842,0.2651 -1.793645,-0.52781 -1.793645,-0.83399 0,-0.33369 0.395215,-0.44406 0.763482,-0.21323 0.310789,0.1948 0.297388,0.20807 -0.100469,0.0993 -0.278643,-0.0762 -0.459054,-0.0351 -0.459054,0.10424 0,0.12646 0.09176,0.17307 0.204018,0.10367 0.11223,-0.0694 0.204032,-0.0234 0.204032,0.10207 0,0.12544 0.09176,0.17136 0.204032,0.10206 0.112229,-0.0694 0.204017,-0.0234 0.204017,0.10206 0,0.12545 0.09176,0.17138 0.204032,0.10208 0.112229,-0.0694 0.204017,-0.0234 0.204017,0.10206 0,0.12544 0.101631,0.16531 0.22581,0.0886 0.15776,-0.0976 0.142429,-0.19737 -0.05096,-0.33144 -0.189774,-0.13154 -0.11644,-0.15141 0.233258,-0.0631 0.390931,0.0987 0.438582,0.0791 0.204017,-0.0839 -0.168315,-0.11701 -0.478203,-0.15907 -0.688638,-0.0935 -0.24149,0.0752 -0.333089,0.0391 -0.248357,-0.098 0.07404,-0.11993 -0.153057,-0.36575 -0.506966,-0.54877 -0.352659,-0.18236 -0.594833,-0.25513 -0.538151,-0.1617 0.05662,0.0935 -0.02802,0.29101 -0.188134,0.43907 -0.24782,0.22912 -0.276582,0.18867 -0.193114,-0.27161 0.09582,-0.5281 0.08653,-0.53329 -0.390844,-0.22047 -0.544351,0.35667 -0.907871,0.0899 -0.517869,-0.37997 0.173528,-0.20909 0.170029,-0.31695 -0.01452,-0.43064 -0.16685,-0.10308 -0.191982,-0.0652 -0.07841,0.11847 0.118619,0.19193 0.07579,0.23523 -0.14764,0.14949 -0.173049,-0.0664 -0.40728,-0.0282 -0.520497,0.0851 -0.138509,0.13852 -0.257127,0.12298 -0.362431,-0.0475 -0.09481,-0.15346 -0.07289,-0.20156 0.0559,-0.12195 0.116875,0.0722 0.319107,0.003 0.449486,-0.15435 0.180569,-0.21758 0.178565,-0.32177 -0.0087,-0.43732 -0.16685,-0.10309 -0.191967,-0.0652 -0.07841,0.11847 0.118619,0.19192 0.07579,0.23523 -0.14764,0.14948 -0.173064,-0.0663 -0.407295,-0.0282 -0.520511,0.0851 -0.138509,0.13851 -0.257113,0.12297 -0.362417,-0.0475 -0.09481,-0.15347 -0.07289,-0.20158 0.0559,-0.12211 0.116875,0.0722 0.319093,0.003 0.449471,-0.15433 0.180584,-0.21757 0.17858,-0.32176 -0.0087,-0.43733 -0.166849,-0.10308 -0.191967,-0.0652 -0.0784,0.11847 0.118618,0.19193 0.07579,0.23524 -0.147641,0.14947 -0.173049,-0.0664 -0.403171,-0.0323 -0.51138,0.076 -0.315477,0.31547 -0.778756,-0.36073 -0.487539,-0.71162 0.177303,-0.21362 0.150095,-0.34504 -0.11615,-0.56107 -0.29759,-0.24143 -0.322547,-0.24035 -0.173063,0.007 0.13096,0.21725 0.08973,0.25712 -0.164875,0.15942 -0.356449,-0.13676 -0.445725,0.0459 -0.186478,0.3815 0.08421,0.10903 0.0044,0.0395 -0.178697,-0.15456 -0.182443,-0.19397 -0.380943,-0.30345 -0.441093,-0.2433 -0.06011,0.0601 -0.315682,-0.16966 -0.567843,-0.51073 -0.252147,-0.34106 -0.519451,-0.5824 -0.593991,-0.53633 -0.16184,0.10003 -3.279652,-2.99857 -3.212531,-3.19271 0.02555,-0.0741 -0.210797,-0.33695 -0.525288,-0.58432 -0.314505,-0.24739 -0.524983,-0.49663 -0.467736,-0.55389 0.0572,-0.0572 -0.05459,-0.25334 -0.248604,-0.43579 -0.19397,-0.18244 -0.263515,-0.26286 -0.154538,-0.1787 0.335674,0.25924 0.518276,0.16998 0.38148,-0.18649 -0.09771,-0.2546 -0.05779,-0.29583 0.159431,-0.16486 0.247936,0.14947 0.24904,0.12457 0.0072,-0.17308 -0.216039,-0.26627 -0.347447,-0.29349 -0.561076,-0.11614 -0.350889,0.29121 -1.0270849,-0.17206 -0.7116069,-0.48754 0.1081649,-0.10817 0.1424289,-0.33832 0.07593,-0.51139 -0.085803,-0.22347 -0.0424,-0.26624 0.149484,-0.14764 0.183691,0.11354 0.221643,0.0884 0.118474,-0.0784 -0.115569,-0.18697 -0.219742,-0.18898 -0.4373194,-0.009 -0.1570923,0.13038 -0.2265499,0.33264 -0.1543486,0.44949 0.07956,0.12863 0.031507,0.1507 -0.1219574,0.0559 -0.1703917,-0.10526 -0.1859268,-0.22397 -0.047476,-0.36244 0.1132461,-0.11324 0.1515179,-0.34744 0.085078,-0.5205 -0.085803,-0.22348 -0.042397,-0.26625 0.1494847,-0.14763 0.183691,0.11353 0.2216427,0.0884 0.118473,-0.0784 -0.115569,-0.18697 -0.2197408,-0.18898 -0.437319,-0.009 -0.157107,0.13038 -0.22655,0.33265 -0.1543487,0.44949 0.07956,0.12863 0.03136,0.15072 -0.1221019,0.0559 -0.1703916,-0.10526 -0.1859268,-0.22397 -0.047475,-0.36242 0.1132457,-0.11324 0.1515313,-0.34746 0.085078,-0.52051 -0.085802,-0.22347 -0.042397,-0.26626 0.1494847,-0.14764 0.183691,0.11353 0.2216429,0.0884 0.1184731,-0.0784 -0.1136816,-0.18398 -0.2215705,-0.18748 -0.4306397,-0.0145 -0.4699138,0.39 -0.7366377,0.0264 -0.37997,-0.51785 0.3128206,-0.47742 0.307623,-0.48661 -0.2204676,-0.39085 -0.4602868,0.0835 -0.5007366,0.0547 -0.2716163,-0.19313 0.148062,-0.16014 0.3456473,-0.2448 0.4390754,-0.18812 0.093501,0.0567 0.020616,-0.18549 -0.1617096,-0.53815 -0.1830081,-0.3539 -0.4288975,-0.58106 -0.5487786,-0.50698 -0.1370571,0.0848 -0.1732233,-0.007 -0.098001,-0.24835 0.065626,-0.21043 0.020763,-0.52032 -0.099454,-0.68863 -0.1799747,-0.25196 -0.1965548,-0.23838 -0.093791,0.0768 0.06867,0.21059 0.020185,0.50898 -0.1077294,0.66308 -0.174834,0.21066 -0.1727293,0.28018 0.00871,0.28018 0.1325561,0 0.1843014,0.0918 0.1149887,0.20401 -0.069402,0.11223 -0.023376,0.20404 0.102067,0.20404 0.1254418,0 0.1713643,0.0917 0.1020662,0.20401 -0.069402,0.11223 -0.022651,0.20403 0.1036639,0.20403 0.1395249,0 0.1804972,-0.18041 0.1042451,-0.45905 -0.108746,-0.39779 -0.095534,-0.41119 0.099308,-0.10047 0.2305137,0.36777 0.1206502,0.76348 -0.2121332,0.76348 -0.30848,0 -0.8999873,-1.29594 -0.6322477,-1.38519 0.3162041,-0.1054 0.2939468,-0.45359 -0.0241,-0.37608 -0.1402509,0.0342 -0.1861743,0.0237 -0.1020671,-0.0234 0.3085671,-0.17255 0.1421384,-0.44331 -0.2040176,-0.33195 -0.2149061,0.0692 -0.269903,0.0463 -0.1382177,-0.0573 0.1203596,-0.0948 0.2850174,-0.35073 0.3658282,-0.56886 0.1455072,-0.39281 0.1425738,-0.39281 -0.3068245,0 l -0.453725,0.3966 0.3429329,-0.50445 c 0.4736594,-0.69673 0.4317584,-0.97353 -0.058366,-0.38526 -0.2206849,0.26491 -0.4043173,0.3669 -0.4080491,0.22663 -0.0044,-0.14026 0.074334,-0.25504 0.1734406,-0.25504 0.099163,0 0.2282934,-0.18374 0.2870212,-0.40833 0.064315,-0.24597 0.02454,-0.3575 -0.1000338,-0.28048 -0.1324113,0.0819 -0.1524759,-0.0466 -0.055753,-0.35677 l 0.1510385,-0.48461 -0.4284335,0.51006 c -0.2356243,0.28055 -0.4314825,0.40296 -0.4352134,0.27204 -0.0044,-0.13096 0.072886,-0.26864 0.1702752,-0.30604 0.097421,-0.0374 0.2473129,-0.29753 0.333205,-0.57808 l 0.1561491,-0.51006 -0.4284327,0.51006 c -0.2356398,0.28055 -0.4314825,0.40295 -0.4352143,0.27204 -0.0044,-0.13096 0.072886,-0.26863 0.1702615,-0.30604 0.09742,-0.0375 0.2473267,-0.29754 0.333205,-0.57807 l 0.156149,-0.51007 -0.4284335,0.51007 c -0.235639,0.28053 -0.4314825,0.40296 -0.4352134,0.27202 -0.0044,-0.13095 0.072886,-0.26862 0.1702614,-0.30602 0.09742,-0.0374 0.2473267,-0.29754 0.3332188,-0.57807 l 0.156149,-0.51008 -0.4284326,0.51008 c -0.2356398,0.28053 -0.4314971,0.40295 -0.435229,0.27204 -0.0044,-0.13096 0.070851,-0.26865 0.1656735,-0.30605 0.094808,-0.0374 0.2328659,-0.34344 0.3066943,-0.68008 l 0.134153,-0.61209 -0.3226502,0.57911 c -0.4341244,0.77918 -0.5807783,0.57416 -0.1734259,-0.24242 0.1777096,-0.35621 0.2771622,-0.76133 0.2210186,-0.90023 -0.063884,-0.15786 -0.1081648,-0.12806 -0.1181825,0.0796 -0.017857,0.36684 -0.6281822,0.9771 -0.6281822,0.62803 0,-0.11658 0.07724,-0.24261 0.1716842,-0.28 0.094372,-0.0374 0.2320089,-0.38935 0.3057501,-0.78211 0.094081,-0.50119 0.074335,-0.62284 -0.066497,-0.40806 -0.1600981,0.24425 -0.202551,0.20306 -0.2102172,-0.20401 -0.00871,-0.49261 -0.019892,-0.49651 -0.3091768,-0.11397 -0.2512896,0.33223 -0.2995505,0.34239 -0.2995505,0.063 0,-0.18315 0.091759,-0.38974 0.2040323,-0.4591 0.1122295,-0.0694 0.2026234,-0.37316 0.2008955,-0.67512 -0.00147,-0.37868 -0.056624,-0.46454 -0.1757351,-0.27673 -0.1001787,0.1581 -0.1296521,-0.17534 -0.06998,-0.79495 0.072739,-0.75698 0.036154,-1.02622 -0.1258772,-0.9261 -0.16833,0.1041 -0.2283943,-18.03177 -0.2283943,-68.96723 0,-41.02458 0.074774,-69.031416 0.1838652,-68.918998 0.1011953,0.1041 0.2239373,0.418895 0.2729234,0.699426 0.048924,0.280531 0.049364,-0.04079 0.00103,-0.71409 C 4.7152911,74.637907 4.6303549,73.903418 4.574908,73.678988 4.492736,73.346261 4.513783,73.327431 4.6884438,73.576921 4.8609997,73.823377 4.9033215,73.776075 4.9058332,73.333936 4.9073032,73.03196 4.8171242,72.728156 4.7049378,72.6588 4.5927074,72.5894 4.5009055,72.382871 4.5009055,72.199717 c 0,-0.279341 0.0482,-0.269192 0.2995505,0.06301 0.2893002,0.382481 0.2998851,0.378576 0.3091767,-0.113972 0.00724,-0.407076 0.050088,-0.448266 0.2102164,-0.204032 0.140832,0.214805 0.16065,0.09321 0.066497,-0.408049 C 5.3125891,71.143927 5.1750106,70.791979 5.080596,70.754579 4.986224,70.717119 4.9089118,70.59117 4.9089118,70.474555 c 0,-0.349044 0.610382,0.261193 0.6281822,0.628038 0.010166,0.207574 0.054304,0.237381 0.1181825,0.07956 0.056216,-0.138441 -0.043236,-0.543514 -0.220987,-0.899731 C 5.0269371,69.465844 5.173591,69.260825 5.6077154,70.039988 L 5.9303656,70.619096 5.7962126,70.00703 C 5.7224558,69.670384 5.5843838,69.364344 5.4895183,69.326943 5.3947114,69.289487 5.3201139,69.151819 5.3238448,69.020904 c 0.0044,-0.13096 0.1995892,-0.0087 0.4352281,0.272037 l 0.4284336,0.510057 -0.1561491,-0.510057 c -0.085949,-0.280546 -0.2358277,-0.540678 -0.3332196,-0.578078 -0.09742,-0.03746 -0.1739925,-0.175126 -0.1702606,-0.306041 0.0044,-0.130959 0.1995744,-0.0087 0.4352134,0.272038 L 6.3915241,69.190918 6.2353751,68.68086 C 6.1494261,68.400329 5.9995473,68.140197 5.9021701,68.102781 5.8047488,68.065325 5.728163,67.927657 5.7319086,67.796742 c 0.0044,-0.13096 0.1995745,-0.0087 0.4352134,0.272037 l 0.4284336,0.510072 -0.1561491,-0.510072 c -0.085949,-0.280531 -0.2358277,-0.540663 -0.333205,-0.578078 -0.09742,-0.03746 -0.174007,-0.175111 -0.1702752,-0.306026 0.0044,-0.130959 0.1995891,-0.0087 0.4352134,0.272023 L 6.7995732,67.96677 6.6485347,67.482164 c -0.096695,-0.310135 -0.076516,-0.438582 0.055753,-0.356769 0.1245708,0.07695 0.1643956,-0.03456 0.1000338,-0.280488 -0.058659,-0.22459 -0.1878867,-0.408339 -0.2870212,-0.408339 -0.099163,0 -0.1771715,-0.114698 -0.1734406,-0.255022 0.0044,-0.140251 0.1873642,-0.03833 0.4080491,0.226623 0.4900801,0.588256 0.5319811,0.311456 0.058366,-0.385254 l -0.3429329,-0.504454 0.453725,0.396609 c 0.4493836,0.392804 0.4523317,0.392804 0.3068245,0 -0.08087,-0.21813 -0.2454246,-0.474139 -0.3658282,-0.568873 -0.1316853,-0.103664 -0.076809,-0.126604 0.1382177,-0.05735 0.1963661,0.06316 0.3570453,0.03354 0.3570453,-0.06577 0,-0.09931 -0.1033733,-0.215095 -0.229817,-0.257229 -0.2650976,-0.08842 0.5278138,-1.79363 0.8339994,-1.79363 0.3336844,0 0.4440558,0.3952 0.2132222,0.763482 -0.1948123,0.310788 -0.2080677,0.297388 -0.099308,-0.100324 0.076223,-0.278644 0.035137,-0.459053 -0.104245,-0.459053 -0.1264584,0 -0.1730776,0.09176 -0.103664,0.204017 0.069402,0.11223 0.023376,0.204032 -0.1020661,0.204032 -0.1254418,0 -0.1713652,0.09176 -0.1020671,0.204017 0.069403,0.11223 0.023522,0.204032 -0.1020661,0.204032 -0.1254426,0 -0.1713652,0.09176 -0.1020671,0.204031 0.069402,0.112231 0.023522,0.204018 -0.102067,0.204018 -0.1254417,0 -0.1653104,0.101631 -0.088564,0.22581 0.097421,0.157761 0.1973827,0.142428 0.331434,-0.05096 0.1315395,-0.189774 0.1514161,-0.11644 0.06316,0.233244 -0.098727,0.390946 -0.079129,0.438597 0.084061,0.204032 0.117021,-0.168331 0.1590824,-0.478204 0.093501,-0.688639 -0.075205,-0.241504 -0.039051,-0.333088 0.098001,-0.248357 0.1199251,0.07405 0.3657713,-0.153057 0.5487794,-0.506965 0.18237,-0.352675 0.2551378,-0.594832 0.1617097,-0.538152 -0.093501,0.05662 -0.2910135,-0.02802 -0.4390755,-0.188134 -0.2291203,-0.24782 -0.1886713,-0.276582 0.2716163,-0.193113 0.5280906,0.09582 0.5332882,0.08653 0.2204677,-0.390859 -0.3566677,-0.544351 -0.090016,-0.907857 0.3799691,-0.517855 0.2090701,0.173514 0.3169297,0.170015 0.4306405,-0.01452 0.1030828,-0.166863 0.065186,-0.191981 -0.118473,-0.0784 -0.1919234,0.118618 -0.2352325,0.07579 -0.1494847,-0.147641 0.06635,-0.17305 0.02817,-0.40728 -0.085078,-0.520497 -0.1385091,-0.138508 -0.122974,-0.257127 0.047475,-0.362431 0.1534628,-0.09481 0.2015633,-0.07289 0.1221019,0.0559 -0.072162,0.116877 -0.00293,0.319108 0.1543486,0.449486 0.2175774,0.18057 0.3217647,0.178566 0.4373191,-0.0087 0.1030835,-0.166849 0.065186,-0.191981 -0.1184731,-0.0784 -0.1919229,0.118618 -0.2352328,0.07579 -0.1494847,-0.147641 0.06635,-0.17305 0.02817,-0.40728 -0.085078,-0.520497 -0.1385092,-0.138508 -0.122974,-0.257127 0.047475,-0.362431 0.1534631,-0.09481 0.2015637,-0.07289 0.1219574,0.0559 -0.072162,0.116876 -0.00293,0.319107 0.1543487,0.449485 0.2175772,0.18057 0.3217632,0.178566 0.4373192,-0.0087 0.103082,-0.166849 0.06519,-0.191981 -0.118473,-0.0784 -0.191923,0.118618 -0.2352331,0.07579 -0.149485,-0.147641 0.06635,-0.173063 0.03223,-0.403186 -0.07593,-0.511379 -0.3154781,-0.315478 0.3607178,-0.778757 0.7116068,-0.48754 0.213629,0.177304 0.345037,0.150095 0.561076,-0.116149 0.241433,-0.297591 0.240329,-0.322548 -0.0072,-0.173078 -0.217259,0.130959 -0.257127,0.08973 -0.159431,-0.164861 0.136766,-0.356463 -0.04573,-0.445725 -0.38148,-0.186492 -0.109036,0.08421 -0.03949,0.0044 0.154538,-0.178697 0.19397,-0.182442 0.305851,-0.378547 0.248604,-0.435795 -0.0572,-0.0572 0.135024,-0.292146 0.427243,-0.522021 0.292233,-0.229861 0.528613,-0.492795 0.525302,-0.584321 -0.0087,-0.246179 3.094524,-3.322497 3.25301,-3.224554 0.07448,0.04603 0.341844,-0.195276 0.593991,-0.536336 0.252161,-0.341059 0.507677,-0.570876 0.567843,-0.510726 0.06011,0.06011 0.25865,-0.04936 0.441093,-0.243305 0.182442,-0.193984 0.262847,-0.263529 0.178697,-0.154551 -0.259247,0.335687 -0.169971,0.518289 0.186478,0.381494 0.254616,-0.09771 0.295834,-0.05779 0.164875,0.15943 -0.149484,0.247937 -0.124571,0.24904 0.173063,0.0072 0.266289,-0.216024 0.293497,-0.347433 0.11615,-0.561062 -0.291217,-0.350904 0.172062,-1.027099 0.487539,-0.711621 0.108165,0.108165 0.338331,0.142429 0.51138,0.07593 0.223471,-0.0858 0.266259,-0.0424 0.147641,0.149485 -0.113537,0.183691 -0.08842,0.221643 0.0784,0.118473 0.186987,-0.115569 0.188991,-0.219755 0.0087,-0.437333 -0.130378,-0.157093 -0.332639,-0.226536 -0.449472,-0.154334 -0.128635,0.07956 -0.150718,0.03136 -0.0559,-0.122103 0.105261,-0.170392 0.223952,-0.185927 0.362417,-0.04748 0.113246,0.113246 0.347448,0.151532 0.520511,0.08508 0.223472,-0.0858 0.266245,-0.0424 0.147641,0.149485 -0.113537,0.183676 -0.08842,0.221643 0.0784,0.118473 0.186972,-0.115569 0.188976,-0.219757 0.0087,-0.437334 -0.130379,-0.157092 -0.33264,-0.22655 -0.449487,-0.154334 -0.128635,0.07956 -0.150703,0.03136 -0.0559,-0.121957 0.105261,-0.170392 0.223967,-0.185942 0.362432,-0.04748 0.113246,0.113246 0.347447,0.151532 0.520496,0.08508 0.223487,-0.0858 0.266259,-0.0424 0.147641,0.14947 -0.113537,0.183691 -0.08842,0.221643 0.0784,0.118473 0.183981,-0.113681 0.187466,-0.22157 0.01452,-0.43064 -0.390002,-0.469928 -0.02643,-0.736651 0.517869,-0.37997 0.477405,0.312806 0.48661,0.307623 0.390845,-0.220466 -0.08348,-0.460288 -0.05474,-0.500737 0.193113,-0.271617 0.160156,0.148061 0.244815,0.345648 0.188134,0.439076 -0.05662,0.09336 0.185491,0.02062 0.538152,-0.16171 0.353908,-0.183023 0.581054,-0.428898 0.506964,-0.548779 -0.08479,-0.137057 0.0072,-0.173224 0.248358,-0.098 0.210435,0.06563 0.520323,0.02091 0.688638,-0.09945 0.251958,-0.179974 0.238369,-0.196555 -0.0768,-0.09379 -0.210594,0.06867 -0.508983,0.02019 -0.663085,-0.107728 -0.210668,-0.174835 -0.280183,-0.17273 -0.280183,0.0087 0,0.132556 -0.09176,0.1843 -0.204017,0.114987 -0.11223,-0.0694 -0.204032,-0.02337 -0.204032,0.102068 0,0.125441 -0.09176,0.171364 -0.204032,0.102067 -0.11223,-0.0694 -0.204017,-0.02265 -0.204017,0.103663 0,0.139525 0.18041,0.180482 0.459053,0.104245 0.397784,-0.108745 0.411185,-0.09553 0.10047,0.09931 -0.367775,0.230529 -0.763482,0.120506 -0.763482,-0.212118 0,-0.308495 1.295942,-0.899987 1.385188,-0.632248 0.105407,0.316204 0.453581,0.293947 0.376065,-0.0241 -0.03427,-0.14025 -0.02367,-0.186174 0.02338,-0.102067 0.172569,0.308553 0.44333,0.142139 0.331971,-0.204031 -0.06911,-0.214892 -0.04631,-0.269889 0.05735,-0.138074 0.09481,0.120361 0.350744,0.285018 0.568873,0.365829 0.392805,0.145507 0.392805,0.142574 0,-0.306824 l -0.396608,-0.45374 0.504453,0.342947 c 0.696725,0.473645 0.973511,0.431744 0.385255,-0.05837 -0.264909,-0.220699 -0.366889,-0.404318 -0.226623,-0.408049 0.140251,-0.0044 0.255036,0.07434 0.255036,0.173441 0,0.09916 0.183749,0.228278 0.408325,0.287006 0.245976,0.06432 0.35751,0.02454 0.280488,-0.100034 -0.08174,-0.132411 0.0466,-0.152475 0.356768,-0.0559 l 0.484607,0.151038 -0.510058,-0.428432 c -0.280545,-0.23564 -0.402953,-0.431483 -0.272038,-0.435215 0.13096,-0.0044 0.268626,0.07289 0.306041,0.170262 0.03746,0.09742 0.297532,0.247326 0.578063,0.333205 l 0.510072,0.156149 -0.510072,-0.428419 c -0.280531,-0.235639 -0.402938,-0.431497 -0.272022,-0.435228 0.130958,-0.0044 0.268625,0.07289 0.30604,0.170275 0.03746,0.09742 0.297533,0.247327 0.578064,0.333205 l 0.510072,0.156149 -0.510072,-0.428433 c -0.280531,-0.235639 -0.402954,-0.431482 -0.272038,-0.435214 0.130959,-0.0044 0.26864,0.07289 0.30604,0.170262 0.03746,0.09742 0.297547,0.247326 0.578078,0.333205 l 0.510058,0.156149 -0.510058,-0.428434 c -0.280531,-0.235624 -0.402953,-0.431482 -0.272037,-0.435213 0.130959,-0.0044 0.26864,0.07085 0.30604,0.165673 0.03746,0.09481 0.343441,0.232866 0.680087,0.306694 l 0.612081,0.134153 -0.579109,-0.322664 c -0.779177,-0.434111 -0.574158,-0.580779 0.242419,-0.173412 0.356218,0.177709 0.761319,0.277163 0.900235,0.221018 0.157861,-0.06374 0.128055,-0.108164 -0.07956,-0.118182 -0.366845,-0.01786 -0.977096,-0.628197 -0.628036,-0.628197 0.116585,0 0.242607,0.07724 0.280007,0.171684 0.03746,0.09437 0.38935,0.232024 0.782096,0.305765 0.501201,0.09408 0.622854,0.07419 0.408064,-0.0665 -0.244249,-0.160113 -0.203059,-0.202551 0.204017,-0.210231 0.492606,-0.0087 0.496512,-0.01989 0.113972,-0.309162 -0.332232,-0.25129 -0.342395,-0.299551 -0.06301,-0.299551 0.183154,0 0.389741,0.09176 0.459097,0.204032 0.0694,0.11223 0.373161,0.202623 0.675121,0.200896 0.378678,-0.0015 0.464542,-0.05662 0.276727,-0.175735 -0.158094,-0.100179 0.175343,-0.129652 0.794945,-0.07013 0.756978,0.07274 1.026227,0.03616 0.926106,-0.125877 -0.103954,-0.16833 18.024664,-0.228394 68.940168,-0.228394 50.9155,0 69.04421,0.06011 68.94017,0.228394 -0.10018,0.161986 0.16913,0.198573 0.92611,0.125877 0.6196,-0.05953 0.95303,-0.03019 0.79494,0.07013 -0.18782,0.119054 -0.10192,0.173586 0.27673,0.175735 0.30197,0.0015 0.60578,-0.08871 0.67513,-0.200896 0.0694,-0.11223 0.27593,-0.204032 0.45909,-0.204032 0.27933,0 0.26918,0.0482 -0.063,0.299551 -0.38249,0.2893 -0.37858,0.299884 0.11397,0.309162 0.40708,0.0072 0.44827,0.05009 0.20403,0.210231 -0.2148,0.140832 -0.0932,0.16065 0.40805,0.0665 0.39274,-0.07376 0.74469,-0.211335 0.7821,-0.305765 0.0374,-0.09437 0.1634,-0.171684 0.28001,-0.171684 0.34905,0 -0.2612,0.610397 -0.62803,0.628197 -0.20757,0.01017 -0.23738,0.05444 -0.0796,0.118182 0.13894,0.05618 0.54402,-0.04327 0.90023,-0.221018 0.81658,-0.407367 1.0216,-0.260699 0.24242,0.173412 l -0.5791,0.322664 0.61208,-0.134153 c 0.33665,-0.0739 0.64268,-0.211843 0.68009,-0.306694 0.0374,-0.09481 0.17512,-0.169405 0.30604,-0.165673 0.13095,0.0044 0.009,0.199589 -0.27204,0.435213 l -0.51006,0.428434 0.51006,-0.156149 c 0.28055,-0.08595 0.54068,-0.235828 0.57807,-0.333205 0.0374,-0.09742 0.17513,-0.173993 0.30604,-0.170262 0.13096,0.0044 0.009,0.199575 -0.27203,0.435214 l -0.51006,0.428433 0.51006,-0.156149 c 0.28053,-0.0858 0.54066,-0.235828 0.57808,-0.333205 0.0374,-0.09742 0.17512,-0.174007 0.30604,-0.170275 0.13096,0.0044 0.009,0.199589 -0.27204,0.435228 l -0.51007,0.428419 0.51007,-0.156149 c 0.28053,-0.0858 0.54066,-0.235813 0.57807,-0.333205 0.0374,-0.09742 0.17512,-0.173993 0.30603,-0.170262 0.13096,0.0044 0.009,0.199575 -0.27202,0.435215 l -0.51007,0.428432 0.4846,-0.151038 c 0.31014,-0.0967 0.43858,-0.07652 0.35677,0.0559 -0.0769,0.12457 0.0346,0.164396 0.28049,0.100034 0.22458,-0.05866 0.40832,-0.187873 0.40832,-0.287006 0,-0.09916 0.11471,-0.177173 0.25504,-0.173441 0.14025,0.0044 0.0384,0.18735 -0.22662,0.408049 -0.58826,0.490066 -0.31146,0.531967 0.38525,0.05837 l 0.50445,-0.342947 -0.3966,0.45374 c -0.39281,0.449369 -0.39281,0.452331 0,0.306824 0.21813,-0.08087 0.47412,-0.245424 0.56887,-0.365829 0.10366,-0.131684 0.12661,-0.0768 0.0573,0.138074 -0.11136,0.346184 0.15941,0.512584 0.33197,0.204031 0.0471,-0.08421 0.0577,-0.03818 0.0234,0.102067 -0.0775,0.317989 0.27066,0.340247 0.37607,0.0241 0.0893,-0.267739 1.38518,0.323753 1.38518,0.632248 0,0.332696 -0.39571,0.442647 -0.76348,0.212118 -0.31079,-0.194797 -0.29739,-0.208052 0.10047,-0.09931 0.27865,0.07622 0.45906,0.03514 0.45906,-0.104245 0,-0.126458 -0.0918,-0.173078 -0.20402,-0.103663 -0.11223,0.0694 -0.20403,0.02338 -0.20403,-0.102067 0,-0.125442 -0.0918,-0.171366 -0.20402,-0.102068 -0.11223,0.0694 -0.20404,0.01757 -0.20404,-0.114987 0,-0.181253 -0.0696,-0.183358 -0.28018,-0.0087 -0.1541,0.127909 -0.45248,0.176373 -0.66308,0.107728 -0.31523,-0.102792 -0.32882,-0.0861 -0.0768,0.09379 0.16831,0.120214 0.47821,0.164976 0.68864,0.09945 0.24149,-0.0752 0.33308,-0.03905 0.24835,0.098 -0.0741,0.119924 0.15306,0.36577 0.50697,0.548779 0.35268,0.182369 0.59483,0.255137 0.53815,0.16171 -0.0566,-0.09336 0.028,-0.291015 0.18813,-0.439076 0.24783,-0.22912 0.27658,-0.188671 0.19312,0.271617 -0.0958,0.528089 -0.0865,0.533272 0.39086,0.220466 0.54435,-0.356681 0.90785,-0.09002 0.51785,0.37997 -0.17352,0.20907 -0.17001,0.31693 0.0145,0.43064 0.16685,0.103083 0.19199,0.06519 0.0784,-0.118473 -0.11862,-0.191923 -0.0758,-0.235246 0.14764,-0.149484 0.17306,0.06635 0.40729,0.02817 0.52051,-0.08508 0.13851,-0.13851 0.25711,-0.122974 0.36243,0.04747 0.0948,0.153448 0.0729,0.201564 -0.0559,0.121957 -0.11688,-0.07216 -0.31911,-0.0029 -0.44948,0.154334 -0.18057,0.217579 -0.17858,0.32178 0.009,0.437334 0.16684,0.103083 0.19196,0.06519 0.0784,-0.118473 -0.11862,-0.191923 -0.0758,-0.235247 0.14763,-0.149485 0.17307,0.06635 0.40728,0.02817 0.52051,-0.08508 0.13852,-0.138509 0.25712,-0.122974 0.36242,0.04748 0.0948,0.153463 0.0729,0.201563 -0.0559,0.122102 -0.11688,-0.07216 -0.31911,-0.0029 -0.44947,0.154334 -0.18058,0.217578 -0.17858,0.321779 0.009,0.437334 0.16685,0.103082 0.19197,0.06519 0.0784,-0.118474 -0.11861,-0.191922 -0.0758,-0.235231 0.14765,-0.149484 0.17304,0.06635 0.40317,0.03223 0.51137,-0.07593 0.31548,-0.315477 0.77875,0.360719 0.48754,0.711621 -0.1773,0.213629 -0.15009,0.345038 0.11616,0.561062 0.29759,0.241447 0.32253,0.240344 0.17306,-0.0072 -0.13096,-0.217259 -0.0897,-0.257127 0.16486,-0.15943 0.35646,0.136766 0.44572,-0.04588 0.18649,-0.381495 -0.0842,-0.109035 -0.004,-0.03949 0.1787,0.154552 0.18244,0.19397 0.38094,0.303456 0.44109,0.243305 0.0601,-0.06011 0.31568,0.169666 0.56784,0.510725 0.25215,0.341061 0.51946,0.58242 0.59399,0.536338 0.16185,-0.100035 3.27965,2.998569 3.21253,3.192713 -0.0255,0.07405 0.21079,0.336922 0.5253,0.584306 0.3145,0.247385 0.52498,0.496628 0.46773,0.553876 -0.0572,0.0572 0.0546,0.253352 0.2486,0.435794 0.19398,0.182457 0.26352,0.262862 0.15454,0.178712 -0.33567,-0.259248 -0.51827,-0.169986 -0.3815,0.186478 0.0977,0.2546 0.0578,0.295834 -0.15941,0.16486 -0.24795,-0.14947 -0.24904,-0.12457 -0.007,0.173078 0.21603,0.266288 0.34744,0.293496 0.56107,0.11615 0.3509,-0.291216 1.02709,0.172061 0.71162,0.487539 -0.10817,0.108164 -0.14243,0.338316 -0.076,0.511379 0.0858,0.223473 0.0424,0.266244 -0.14948,0.147641 -0.18368,-0.113536 -0.22165,-0.08842 -0.11848,0.0784 0.11557,0.186973 0.21976,0.188977 0.43734,0.0087 0.15709,-0.130378 0.22653,-0.332638 0.15433,-0.449485 -0.0796,-0.128636 -0.0314,-0.150705 0.12196,-0.0559 0.17039,0.105261 0.18593,0.223966 0.0475,0.362431 -0.11325,0.113246 -0.15153,0.347449 -0.0851,0.520497 0.0858,0.223487 0.0424,0.266259 -0.14948,0.147641 -0.18368,-0.113537 -0.22164,-0.08842 -0.11848,0.0784 0.11557,0.186973 0.21976,0.188977 0.43734,0.0087 0.15709,-0.130378 0.22654,-0.332653 0.15433,-0.449485 -0.0796,-0.128637 -0.0314,-0.150705 0.1221,-0.0559 0.17039,0.105261 0.18595,0.223966 0.0475,0.362431 -0.11325,0.113246 -0.15153,0.347449 -0.0851,0.520497 0.0858,0.223473 0.0424,0.266259 -0.14947,0.147641 -0.1837,-0.113537 -0.22164,-0.08842 -0.11848,0.0784 0.11368,0.183967 0.22158,0.187466 0.43065,0.01452 0.46992,-0.390003 0.73665,-0.02643 0.37996,0.517854 -0.3128,0.477419 -0.30762,0.486624 0.22047,0.390858 0.46029,-0.08348 0.50074,-0.05474 0.27162,0.193115 -0.14807,0.160156 -0.34565,0.244815 -0.43908,0.188133 -0.0935,-0.05662 -0.0206,0.185477 0.16171,0.538151 0.18302,0.35391 0.4289,0.581055 0.54878,0.506966 0.13706,-0.08479 0.17323,0.0072 0.098,0.248358 -0.0656,0.210434 -0.0235,0.520321 0.0935,0.688638 0.16304,0.234564 0.18265,0.186914 0.0841,-0.204033 -0.0883,-0.349683 -0.0684,-0.423017 0.0632,-0.233242 0.134,0.193389 0.23393,0.208764 0.33145,0.05096 0.0768,-0.124136 0.0369,-0.225811 -0.0886,-0.225811 -0.12544,0 -0.17137,-0.09176 -0.10207,-0.204017 0.0694,-0.11223 0.0234,-0.204032 -0.10206,-0.204032 -0.12544,0 -0.17137,-0.09176 -0.10207,-0.204031 0.0694,-0.112231 0.0235,-0.204018 -0.10207,-0.204018 -0.12544,0 -0.17136,-0.09176 -0.10207,-0.204031 0.0694,-0.112231 0.0227,-0.204018 -0.10365,-0.204018 -0.13953,0 -0.18051,0.18041 -0.10425,0.459054 0.10875,0.397784 0.0955,0.411185 -0.0993,0.100324 -0.23085,-0.368282 -0.1205,-0.763483 0.2132,-0.763483 0.3062,0 1.0991,1.70527 0.83401,1.793631 -0.12646,0.0421 -0.22982,0.157891 -0.22982,0.257228 0,0.09931 0.16068,0.128926 0.35706,0.06577 0.21489,-0.06911 0.26989,-0.04631 0.13807,0.05735 -0.12036,0.09481 -0.28502,0.350744 -0.36583,0.568873 -0.1455,0.392805 -0.14257,0.392805 0.30683,0 l 0.45372,-0.396609 -0.34293,0.504454 c -0.47365,0.696711 -0.43174,0.973511 0.0584,0.385255 0.22069,-0.264909 0.40433,-0.366888 0.40805,-0.226623 0.004,0.140251 -0.0743,0.255022 -0.17344,0.255022 -0.0992,0 -0.22827,0.183749 -0.28702,0.408339 -0.0643,0.245962 -0.0246,0.357495 0.10003,0.280488 0.13242,-0.08174 0.15248,0.0466 0.0558,0.356768 l -0.15104,0.484607 0.42843,-0.510073 c 0.23565,-0.280531 0.43149,-0.402953 0.43522,-0.272023 0.004,0.130959 -0.0729,0.268626 -0.17027,0.306026 -0.0974,0.03746 -0.24731,0.297548 -0.33321,0.578079 l -0.15614,0.510072 0.42842,-0.510072 c 0.23565,-0.280531 0.43149,-0.402953 0.43523,-0.272038 0.004,0.130959 -0.0729,0.26864 -0.17028,0.306041 -0.0974,0.03746 -0.24732,0.297546 -0.3332,0.578077 l -0.15615,0.510058 0.42844,-0.510058 c 0.23564,-0.280531 0.43148,-0.402953 0.43521,-0.272037 0.004,0.130959 -0.0729,0.26864 -0.17026,0.30604 -0.0974,0.03746 -0.24733,0.297533 -0.3332,0.578078 l -0.15615,0.510058 0.42843,-0.510058 c 0.23563,-0.280545 0.43148,-0.402952 0.43521,-0.272037 0.004,0.130958 -0.0709,0.268625 -0.16567,0.30604 -0.0948,0.03746 -0.23287,0.343441 -0.30669,0.680087 l -0.1343,0.612067 0.32264,-0.579109 c 0.43413,-0.779163 0.5808,-0.574144 0.17343,0.242433 -0.17771,0.356218 -0.27716,0.76132 -0.22101,0.900235 0.0637,0.157862 0.10816,0.128055 0.11818,-0.07956 0.0179,-0.366845 0.6282,-0.977082 0.6282,-0.628036 0,0.116584 -0.0773,0.242622 -0.1717,0.280022 -0.0944,0.03746 -0.22964,0.389349 -0.3005,0.782095 l -0.12878,0.71409 0.33415,-0.612081 c 0.23191,-0.424789 0.36442,-0.521557 0.4331,-0.316233 0.0544,0.162712 -0.007,0.331028 -0.1356,0.374047 -0.12907,0.04297 -0.23462,0.259594 -0.23462,0.481296 0,0.221701 0.0864,0.349713 0.19194,0.284465 0.11455,-0.0707 0.14286,0.184112 0.0701,0.631754 -0.0755,0.465094 -0.0462,0.703636 0.0772,0.627428 0.11876,-0.07346 0.1633,0.12007 0.11049,0.480221 -0.0486,0.331739 0.0116,0.724064 0.13445,0.87185 0.31724,0.382264 0.31724,138.01448 0,138.39675 -0.12269,0.14777 -0.18316,0.54011 -0.13445,0.87185 0.0529,0.36013 0.009,0.55362 -0.11049,0.4802 -0.12326,-0.0762 -0.15265,0.16234 -0.0772,0.62743 0.0726,0.44764 0.0443,0.70253 -0.0701,0.63176 -0.10555,-0.0652 -0.19194,0.0627 -0.19194,0.28446 0,0.2217 0.10555,0.43829 0.23462,0.48131 0.12908,0.0429 0.19011,0.21134 0.1356,0.37405 -0.0686,0.20531 -0.20119,0.1086 -0.4331,-0.31624 l -0.33415,-0.61209 0.12878,0.71409 c 0.0709,0.39276 0.20608,0.7447 0.3005,0.78211 0.0944,0.0374 0.1717,0.16341 0.1717,0.28001 0,0.34906 -0.61041,-0.26119 -0.6282,-0.62804 -0.0102,-0.20756 -0.0544,-0.23737 -0.11818,-0.0796 -0.0562,0.13894 0.0433,0.54401 0.22101,0.90023 0.40737,0.81657 0.2607,1.02159 -0.17343,0.24242 l -0.32264,-0.57911 0.1343,0.61208 c 0.0737,0.33665 0.21184,0.64269 0.30669,0.68008 0.0948,0.0375 0.1694,0.17513 0.16567,0.30605 -0.004,0.13096 -0.19958,0.009 -0.43521,-0.27204 l -0.42843,-0.51007 0.15615,0.51007 c 0.0858,0.28053 0.23581,0.54066 0.3332,0.57808 0.0974,0.0374 0.17399,0.1751 0.17026,0.30602 -0.004,0.13096 -0.19957,0.009 -0.43521,-0.27202 l -0.42844,-0.51008 0.15615,0.51008 c 0.0858,0.28053 0.23583,0.54066 0.3332,0.57807 0.0974,0.0374 0.17401,0.17512 0.17028,0.30603 -0.004,0.13096 -0.19958,0.009 -0.43523,-0.27204 l -0.42842,-0.51005 0.15614,0.51005 c 0.086,0.28055 0.23583,0.54069 0.33321,0.57808 0.0974,0.0374 0.174,0.17512 0.17027,0.30605 -0.004,0.13096 -0.19957,0.009 -0.43522,-0.27204 l -0.42843,-0.51007 0.15104,0.48461 c 0.0967,0.31014 0.0765,0.43859 -0.0558,0.35678 -0.12457,-0.0771 -0.16439,0.0346 -0.10003,0.28048 0.0588,0.22458 0.18789,0.40833 0.28702,0.40833 0.0992,0 0.17718,0.11469 0.17344,0.25503 -0.004,0.14026 -0.18736,0.0383 -0.40805,-0.22662 -0.49006,-0.58827 -0.53196,-0.31147 -0.0584,0.38526 l 0.34293,0.50445 -0.45372,-0.39661 c -0.44938,-0.39281 -0.45233,-0.39281 -0.30683,0 0.0809,0.21813 0.24543,0.47412 0.36583,0.56887 0.13183,0.10367 0.0768,0.1266 -0.13807,0.0573 -0.34619,-0.11136 -0.5126,0.15939 -0.20404,0.33195 0.0842,0.0471 0.0384,0.0576 -0.10206,0.0234 -0.31799,-0.0775 -0.34024,0.27068 -0.0241,0.37608 0.26773,0.0893 -0.32377,1.3852 -0.63225,1.3852 -0.3327,0 -0.44265,-0.39571 -0.21212,-0.76349 0.1948,-0.31079 0.20805,-0.29738 0.0993,0.10047 -0.0762,0.27864 -0.0351,0.45905 0.10424,0.45905 0.12646,0 0.17308,-0.0917 0.10367,-0.20402 -0.0694,-0.11223 -0.0235,-0.20402 0.10206,-0.20402 0.12544,0 0.17137,-0.0918 0.10207,-0.20403 -0.0694,-0.11223 -0.0176,-0.20402 0.11499,-0.20402 0.18125,0 0.18336,-0.0696 0.009,-0.28019 -0.12791,-0.1541 -0.17638,-0.45249 -0.10773,-0.66308 0.10279,-0.31523 0.0861,-0.32882 -0.0938,-0.0768 -0.12021,0.16832 -0.16496,0.4782 -0.0994,0.68862 0.0752,0.24151 0.0391,0.33311 -0.098,0.24837 -0.11993,-0.0741 -0.36576,0.15306 -0.54877,0.50697 -0.18237,0.35266 -0.25514,0.59483 -0.16171,0.53815 0.0935,-0.0567 0.29102,0.028 0.43907,0.18813 0.22911,0.24782 0.18868,0.27659 -0.27161,0.19312 -0.52809,-0.0958 -0.53329,-0.0865 -0.22046,0.39084 0.35666,0.54436 0.0899,0.90786 -0.37999,0.51787 -0.20907,-0.17353 -0.31693,-0.17003 -0.43063,0.0145 -0.10308,0.16686 -0.0652,0.19198 0.11847,0.0784 0.19193,-0.11862 0.23524,-0.0758 0.14949,0.14765 -0.0664,0.17304 -0.0282,0.40727 0.0851,0.5205 0.13852,0.13851 0.12298,0.25712 -0.0475,0.36242 -0.15346,0.0948 -0.20157,0.0729 -0.1221,-0.0559 0.0722,-0.11688 0.003,-0.31911 -0.15433,-0.44948 -0.21758,-0.18058 -0.32177,-0.17858 -0.43732,0.009 -0.10308,0.16687 -0.0652,0.19198 0.11847,0.0784 0.19192,-0.11862 0.23524,-0.0758 0.14948,0.14764 -0.0664,0.17306 -0.0282,0.40729 0.0851,0.52052 0.13851,0.1385 0.12297,0.25711 -0.0475,0.36241 -0.15346,0.0948 -0.20158,0.0728 -0.1221,-0.0559 0.0722,-0.11688 0.003,-0.31911 -0.15434,-0.44949 -0.21758,-0.18058 -0.32176,-0.17857 -0.43733,0.009 -0.10308,0.16685 -0.0652,0.19198 0.11847,0.0784 0.19192,-0.11862 0.23523,-0.0758 0.14947,0.14765 -0.0663,0.17304 -0.0322,0.40317 0.076,0.51136 0.31548,0.31547 -0.36072,0.77876 -0.71161,0.48754 -0.21364,-0.1773 -0.34504,-0.15008 -0.56107,0.11615 -0.24144,0.2976 -0.24035,0.32255 0.007,0.17308 0.21725,-0.13096 0.25712,-0.0897 0.15943,0.16486 -0.13677,0.35646 0.0457,0.44572 0.38149,0.18649 0.10903,-0.0842 0.0395,-0.004 -0.15456,0.1787 -0.19396,0.18244 -0.30345,0.38092 -0.2433,0.44109 0.0601,0.0601 -0.16966,0.31568 -0.51073,0.56784 -0.34105,0.25215 -0.58241,0.51946 -0.53633,0.59399 0.0999,0.16167 -3.13464,3.41561 -3.24854,3.26801 -0.0433,-0.056 -0.28111,0.15531 -0.52849,0.46981 -0.24739,0.31449 -0.49663,0.52497 -0.55388,0.46774 -0.0572,-0.0572 -0.25335,0.0546 -0.4358,0.2486 -0.18244,0.19398 -0.26286,0.26352 -0.17869,0.15454 0.25923,-0.33567 0.16997,-0.51828 -0.1865,-0.3815 -0.2546,0.0977 -0.29583,0.0578 -0.16486,-0.15941 0.14947,-0.24795 0.12457,-0.24904 -0.17308,-0.007 -0.26628,0.21603 -0.29349,0.34744 -0.11614,0.56107 0.29121,0.35088 -0.17206,1.02708 -0.48754,0.7116 -0.10817,-0.10817 -0.33832,-0.14242 -0.51139,-0.076 -0.22346,0.0858 -0.26624,0.0424 -0.14763,-0.14948 0.11353,-0.18369 0.0884,-0.22164 -0.0784,-0.11847 -0.18697,0.11556 -0.18898,0.21974 -0.009,0.43731 0.13037,0.15711 0.33264,0.22656 0.44948,0.15435 0.12864,-0.0796 0.15071,-0.0314 0.0559,0.12196 -0.10527,0.17039 -0.22397,0.18593 -0.36243,0.0475 -0.11325,-0.11325 -0.34745,-0.15151 -0.5205,-0.0851 -0.22348,0.0858 -0.26626,0.0424 -0.14764,-0.14949 0.11353,-0.18369 0.0884,-0.22164 -0.0784,-0.11848 -0.18697,0.11558 -0.18897,0.21975 -0.009,0.43734 0.13038,0.15709 0.33266,0.22654 0.44948,0.15433 0.12864,-0.0796 0.15071,-0.0314 0.0559,0.1221 -0.10527,0.1704 -0.22397,0.18593 -0.36243,0.0475 -0.11325,-0.11323 -0.34745,-0.15153 -0.5205,-0.0851 -0.22348,0.0858 -0.26626,0.0424 -0.14764,-0.14948 0.11353,-0.18368 0.0884,-0.22165 -0.0784,-0.11847 -0.18396,0.11368 -0.18746,0.22156 -0.0145,0.43064 0.39,0.46993 0.0264,0.73665 -0.51785,0.37997 -0.47742,-0.31283 -0.48661,-0.30763 -0.39084,0.22047 0.0835,0.46028 0.0547,0.50073 -0.19314,0.27161 -0.16014,-0.14806 -0.2448,-0.34565 -0.18812,-0.43908 0.0566,-0.0934 -0.18548,-0.0206 -0.53814,0.16171 -0.35391,0.18301 -0.58107,0.4289 -0.50699,0.54878 0.0848,0.13706 -0.007,0.17323 -0.24835,0.098 -0.21043,-0.0656 -0.52031,-0.0235 -0.68865,0.0935 -0.23455,0.16304 -0.18691,0.18266 0.20404,0.0839 0.34968,-0.0883 0.42303,-0.0684 0.23325,0.0632 -0.1934,0.134 -0.20877,0.23394 -0.051,0.33143 0.12413,0.0768 0.22578,0.0369 0.22578,-0.0886 0,-0.12545 0.0918,-0.17137 0.20402,-0.10208 0.11223,0.0694 0.20404,0.0234 0.20404,-0.10206 0,-0.12544 0.0918,-0.17136 0.20403,-0.10206 0.11223,0.0694 0.20402,0.0235 0.20402,-0.10207 0,-0.12545 0.0918,-0.17137 0.20403,-0.10207 0.11223,0.0694 0.20402,0.0227 0.20402,-0.10366 0,-0.13953 -0.18041,-0.1805 -0.45906,-0.10425 -0.39779,0.10875 -0.41118,0.0955 -0.10046,-0.0993 0.36826,-0.23083 0.76347,-0.12051 0.76347,0.21321 0,0.30619 -1.70527,1.09911 -1.79363,0.83401 -0.0421,-0.12646 -0.15789,-0.22982 -0.25723,-0.22982 -0.0993,0 -0.12892,0.16068 -0.0658,0.35704 0.0691,0.21491 0.0463,0.26991 -0.0573,0.13807 -0.0948,-0.12035 -0.35073,-0.28502 -0.56886,-0.36582 -0.39281,-0.14551 -0.39281,-0.14258 0,0.30681 l 0.3966,0.45373 -0.50445,-0.34294 c -0.69671,-0.47364 -0.97351,-0.43174 -0.38526,0.0584 0.26491,0.2207 0.36689,0.40431 0.22663,0.40806 -0.14026,0.004 -0.25504,-0.0743 -0.25504,-0.17345 0,-0.0992 -0.18374,-0.22829 -0.40833,-0.28701 -0.24595,-0.0643 -0.35748,-0.0246 -0.28048,0.10004 0.0819,0.1324 -0.0466,0.15247 -0.35677,0.0559 l -0.48461,-0.15104 0.51007,0.42842 c 0.28054,0.23564 0.40294,0.4315 0.27203,0.43523 -0.13096,0.004 -0.26863,-0.0729 -0.30604,-0.17027 -0.0374,-0.0974 -0.29753,-0.24733 -0.57806,-0.33321 l -0.51008,-0.15615 0.51008,0.42843 c 0.28053,0.23564 0.40295,0.43149 0.27204,0.43522 -0.13096,0.004 -0.26865,-0.0729 -0.30605,-0.17027 -0.0374,-0.0974 -0.29755,-0.24732 -0.57808,-0.3332 l -0.51005,-0.15615 0.51005,0.42843 c 0.28053,0.23563 0.40296,0.43149 0.27204,0.43522 -0.13096,0.004 -0.26864,-0.0729 -0.30604,-0.17028 -0.0374,-0.0974 -0.29753,-0.24731 -0.57807,-0.3332 l -0.51007,-0.15615 0.51007,0.42843 c 0.28054,0.23564 0.40295,0.43149 0.27204,0.43523 -0.13097,0.004 -0.26864,-0.0709 -0.30605,-0.16567 -0.0374,-0.0948 -0.34344,-0.23287 -0.68008,-0.3067 l -0.61209,-0.13429 0.57911,0.32264 c 0.77918,0.43413 0.57416,0.58078 -0.24242,0.17343 -0.35622,-0.17771 -0.76132,-0.27717 -0.90023,-0.22103 -0.15787,0.0637 -0.12806,0.10816 0.0796,0.11818 0.36682,0.0178 0.97708,0.62818 0.62802,0.62818 -0.11659,0 -0.24261,-0.0773 -0.28001,-0.17168 -0.0374,-0.0944 -0.38935,-0.22964 -0.78209,-0.30049 l -0.71409,-0.12879 0.61206,0.33416 c 0.42481,0.23189 0.52157,0.36441 0.31625,0.4331 -0.16271,0.0544 -0.33103,-0.007 -0.37404,-0.1356 -0.0429,-0.12907 -0.2596,-0.23463 -0.4813,-0.23463 -0.2217,0 -0.34971,0.0864 -0.28447,0.19194 0.0707,0.11456 -0.18411,0.14286 -0.63177,0.0701 -0.46509,-0.0755 -0.70362,-0.0461 -0.62741,0.0773 0.0735,0.11876 -0.12007,0.16327 -0.48022,0.11048 -0.33174,-0.0486 -0.72407,0.0117 -0.87184,0.13445 -0.37811,0.31382 -138.184021,0.31777 -138.377962,0.004 z m 1.289961,-0.3207 c -0.196366,-0.0512 -0.517709,-0.0512 -0.71409,0 -0.196366,0.0512 -0.03571,0.0933 0.357045,0.0933 0.392761,0 0.553426,-0.042 0.357045,-0.0933 z m 136.493305,0 c -0.19638,-0.0512 -0.51772,-0.0512 -0.71409,0 -0.19638,0.0512 -0.0357,0.0933 0.35705,0.0933 0.39274,0 0.5534,-0.042 0.35704,-0.0933 z M 32.806663,241.77694 c -0.0678,-0.0678 -0.24377,-0.0751 -0.391048,-0.0161 -0.162755,0.0652 -0.114408,0.11354 0.123264,0.12327 0.21508,0.009 0.335586,-0.0393 0.267784,-0.10715 z m 139.961747,0 c -0.0678,-0.0678 -0.24378,-0.0751 -0.39105,-0.0161 -0.16276,0.0652 -0.11441,0.11354 0.12326,0.12327 0.21508,0.009 0.33557,-0.0393 0.26779,-0.10715 z M 31.582515,241.5729 c -0.0678,-0.0678 -0.24377,-0.0751 -0.391047,-0.0161 -0.16277,0.0652 -0.114408,0.11354 0.123264,0.12327 0.215066,0.009 0.335572,-0.0393 0.267783,-0.10716 z m 142.410035,0 c -0.0678,-0.0678 -0.24377,-0.0751 -0.39105,-0.0161 -0.16275,0.0652 -0.11441,0.11354 0.12327,0.12327 0.21508,0.009 0.33558,-0.0393 0.26778,-0.10716 z M 20.624252,237.91703 c 0.215603,-0.2598 0.202986,-0.28965 -0.07709,-0.1822 -0.184184,0.0707 -0.334889,0.2105 -0.334889,0.31072 0,0.26237 0.118038,0.22552 0.411926,-0.12849 z m 164.236928,0.12849 c 0,-0.10018 -0.15071,-0.24003 -0.33489,-0.31071 -0.28003,-0.10745 -0.29264,-0.0775 -0.0771,0.18219 0.29383,0.35404 0.41193,0.39089 0.41193,0.12849 z M 18.361013,236.51166 c 0.182951,-0.22044 0.181412,-0.32342 -0.0058,-0.43959 -0.166864,-0.10308 -0.191982,-0.0652 -0.0784,0.11848 0.121231,0.19621 0.07405,0.23454 -0.172498,0.13996 -0.338025,-0.12965 -0.462508,0.0739 -0.203495,0.33297 0.181194,0.18119 0.185855,0.17966 0.460985,-0.15185 z m 168.948467,-0.12588 c 0,-0.10206 -0.15276,-0.12689 -0.3395,-0.0554 -0.24652,0.0947 -0.29376,0.0563 -0.1725,-0.13996 0.11354,-0.18369 0.0884,-0.22164 -0.0784,-0.11848 -0.18699,0.11558 -0.189,0.21977 -0.009,0.43734 0.2404,0.28968 0.59886,0.21572 0.59886,-0.12355 z M 17.045267,235.34203 c 0.06011,-0.0601 -0.09074,-0.28458 -0.335209,-0.49896 -0.244393,-0.2144 -0.377254,-0.27504 -0.295238,-0.13474 0.08203,0.14025 0.06316,0.25502 -0.04196,0.25502 -0.237788,0 -0.679448,-0.51371 -0.551582,-0.64158 0.05168,-0.0516 -0.683614,-0.86752 -1.633982,-1.81295 -0.950381,-0.94545 -1.727962,-1.64091 -1.727962,-1.54548 0,0.0954 -0.137638,0.0592 -0.306025,-0.0804 -0.369445,-0.30659 -0.410344,-0.69713 -0.05096,-0.48702 0.140251,0.082 0.07971,-0.0508 -0.134734,-0.29525 -0.214384,-0.2444 -0.438916,-0.39525 -0.498966,-0.3352 -0.29868,0.29868 -0.136476,0.75063 0.408644,1.1388 0.33309,0.23718 0.551698,0.48518 0.485783,0.55109 -0.159053,0.15905 2.776461,3.10697 2.972958,2.98553 0.08391,-0.0518 0.343644,0.17402 0.577178,0.50199 0.382423,0.53708 0.834812,0.69663 1.132142,0.3993 z m -2.561846,-2.06228 c -0.626062,-0.58893 -1.358067,-1.34621 -1.626649,-1.68285 -0.268582,-0.33664 0.266607,0.12023 1.189316,1.01535 0.922724,0.89508 1.677669,1.65252 1.677669,1.68321 0,0.1314 -0.161187,-6.2e-4 -1.240336,-1.01571 z m 174.688229,1.64718 c 0.22733,-0.31928 0.48199,-0.53804 0.56591,-0.48618 0.19649,0.12138 3.13201,-2.82648 2.97296,-2.98553 -0.0659,-0.0659 0.15268,-0.31391 0.48578,-0.55109 0.54515,-0.38817 0.70732,-0.84012 0.40864,-1.13881 -0.0599,-0.0601 -0.28458,0.0907 -0.49896,0.3352 -0.21439,0.24441 -0.27503,0.37727 -0.13474,0.29525 0.35933,-0.2101 0.31842,0.18044 -0.051,0.48704 -0.16832,0.13966 -0.30603,0.17592 -0.30603,0.0804 0,-0.0954 -0.77758,0.60003 -1.72796,1.54548 -0.95037,0.94543 -1.68566,1.76127 -1.63397,1.81296 0.12791,0.12791 -0.31381,0.64158 -0.55158,0.64158 -0.10512,0 -0.12399,-0.1147 -0.042,-0.25503 0.082,-0.14024 -0.048,-0.0822 -0.2892,0.12922 -0.24108,0.21136 -0.3986,0.44856 -0.35008,0.52706 0.19887,0.3218 0.76438,0.107 1.15222,-0.4377 z m 1.70351,-2.17541 c 0.89507,-0.91557 1.65867,-1.66469 1.69687,-1.66469 0.21584,0 -1.55945,1.92565 -2.36868,2.5693 -0.69506,0.55283 -0.5119,0.30618 0.67181,-0.90461 z M 10.480026,228.70707 c -0.09466,-0.24651 -0.05633,-0.29375 0.13996,-0.1725 0.183691,0.11354 0.221643,0.0884 0.118473,-0.0784 -0.115569,-0.18697 -0.219755,-0.18897 -0.437334,-0.009 -0.289677,0.24041 -0.215719,0.59886 0.123555,0.59886 0.102067,0 0.126893,-0.15278 0.05531,-0.3395 z m 184.466134,0.1586 c 0.0616,-0.0994 -0.0167,-0.28759 -0.17382,-0.41796 -0.21757,-0.18057 -0.32175,-0.17857 -0.43731,0.009 -0.10308,0.16685 -0.0652,0.19198 0.11847,0.0784 0.19621,-0.12123 0.23453,-0.0741 0.13996,0.1725 -0.13444,0.35035 0.15402,0.48006 0.35269,0.1586 z M 9.0757591,226.26338 c 0.1074389,-0.28003 0.077533,-0.29266 -0.1821958,-0.0771 -0.3540396,0.29383 -0.3908878,0.41193 -0.1284907,0.41193 0.1001787,0 0.2400381,-0.1507 0.310715,-0.33489 z m 187.4148909,0.25785 c 0,-0.0424 -0.13981,-0.19307 -0.31071,-0.33489 -0.25979,-0.21562 -0.28965,-0.20299 -0.18219,0.0771 0.10975,0.28599 0.4929,0.48643 0.4929,0.25785 z M 5.2537885,215.33859 c -0.065186,-0.16275 -0.1135367,-0.1144 -0.1232637,0.12327 -0.00871,0.21508 0.039344,0.33559 0.1071482,0.26778 0.067799,-0.0678 0.075059,-0.24377 0.016115,-0.39105 z m 194.6406515,0 c -0.0652,-0.16275 -0.11353,-0.1144 -0.12327,0.12327 -0.009,0.21508 0.0393,0.33559 0.10716,0.26778 0.0678,-0.0678 0.075,-0.24377 0.0161,-0.39105 z M 5.049757,214.11443 c -0.065186,-0.16275 -0.1135366,-0.1144 -0.1232645,0.12327 -0.00871,0.21506 0.039344,0.33557 0.1071482,0.26778 0.067799,-0.0678 0.075059,-0.24377 0.016115,-0.39106 z m 195.048703,0 c -0.065,-0.16275 -0.11339,-0.1144 -0.12326,0.12327 -0.009,0.21506 0.0393,0.33557 0.10714,0.26778 0.0678,-0.0678 0.0751,-0.24377 0.0161,-0.39106 z M 4.8477432,212.16732 c -0.051683,-0.19851 -0.097421,-0.0855 -0.1016316,0.25115 -0.0044,0.33665 0.03818,0.49906 0.094082,0.36094 0.0559,-0.13808 0.059236,-0.41357 0.00724,-0.61209 z m 195.4567668,0 c -0.0516,-0.19851 -0.0974,-0.0855 -0.10163,0.25115 -0.004,0.33665 0.0382,0.49906 0.0941,0.36094 0.0559,-0.13808 0.0592,-0.41357 0.007,-0.61209 z m 0,-136.289249 c -0.0516,-0.198515 -0.0974,-0.08552 -0.10163,0.251145 -0.004,0.336646 0.0382,0.499067 0.0941,0.360935 0.0559,-0.138072 0.0592,-0.413565 0.007,-0.61208 z M 5.049757,74.152722 c -0.065186,-0.162754 -0.1135366,-0.114407 -0.1232645,0.123264 -0.00871,0.215081 0.039344,0.335586 0.1071482,0.267784 0.067799,-0.0678 0.075059,-0.24377 0.016116,-0.391048 z m 195.048703,0 c -0.065,-0.162754 -0.11339,-0.114407 -0.12326,0.123264 -0.009,0.215081 0.0393,0.335586 0.10714,0.267784 0.0678,-0.0678 0.0751,-0.24377 0.0161,-0.391048 z M 5.2537885,72.92856 c -0.065186,-0.162754 -0.1135367,-0.114407 -0.1232637,0.123265 -0.00871,0.215065 0.039344,0.335571 0.1071482,0.267783 0.067799,-0.06781 0.075059,-0.24377 0.016115,-0.391062 z m 194.6406515,0 c -0.0652,-0.162754 -0.11353,-0.114407 -0.12327,0.123265 -0.009,0.215065 0.0393,0.335571 0.10716,0.267783 0.0678,-0.06781 0.075,-0.24377 0.0161,-0.391062 z M 9.0646809,62.25546 c -0.064608,-0.168316 -0.2106664,-0.306041 -0.3246101,-0.306041 -0.1194888,0 -0.099598,0.129652 0.046751,0.306041 0.1396706,0.16833 0.2857727,0.30604 0.3246101,0.30604 0.038913,0 0.017857,-0.137638 -0.046751,-0.30604 z m 187.2219491,0 c 0.1464,-0.176389 0.16623,-0.306041 0.0467,-0.306041 -0.11397,0 -0.26002,0.137783 -0.32461,0.306041 -0.0646,0.16833 -0.0857,0.30604 -0.0467,0.30604 0.0388,0 0.18492,-0.137638 0.32461,-0.30604 z M 10.7446,60.081671 c 0.09684,-0.15673 0.05518,-0.17967 -0.124571,-0.06853 -0.196206,0.121232 -0.234535,0.07404 -0.13996,-0.172497 0.07172,-0.18674 0.05662,-0.339521 -0.0334,-0.339521 -0.324116,0 -0.427606,0.27394 -0.204874,0.542304 0.276902,0.33367 0.318266,0.336806 0.502784,0.03833 z m 184.20156,-0.399643 c -0.19867,-0.321473 -0.48711,-0.191749 -0.35268,0.158603 0.0947,0.246513 0.0563,0.293757 -0.13996,0.172497 -0.18369,-0.113537 -0.22164,-0.08842 -0.11847,0.0784 0.11556,0.186987 0.21973,0.188991 0.43731,0.0087 0.15711,-0.130378 0.23533,-0.318454 0.17382,-0.417951 z m -182.9775,-1.23611 c 0.213774,-0.243713 0.273911,-0.376021 0.133573,-0.294005 -0.140251,0.08203 -0.255022,0.06316 -0.255022,-0.04196 0,-0.237788 0.513717,-0.679433 0.641583,-0.551581 0.05168,0.05168 0.867524,-0.683586 1.812955,-1.633954 0.945431,-0.950381 1.640908,-1.727961 1.545476,-1.727961 -0.09539,0 -0.05924,-0.137783 0.08043,-0.306041 0.306606,-0.369428 0.697146,-0.410328 0.487046,-0.05096 -0.08203,0.14025 0.05081,0.07956 0.295238,-0.134735 0.244408,-0.214398 0.395258,-0.43893 0.335208,-0.498965 -0.297328,-0.297343 -0.749718,-0.137782 -1.132141,0.399295 -0.233535,0.327948 -0.49326,0.553845 -0.577178,0.501985 -0.196497,-0.121522 -3.132011,2.826479 -2.972959,2.985531 0.06592,0.06592 -0.152693,0.313881 -0.485781,0.551074 -0.515155,0.366815 -0.62133,0.646403 -0.45361,1.194455 0.03818,0.124862 0.183081,0.02062 0.545063,-0.392107 z m 1.20462,-1.889658 c 0.407686,-0.497528 1.171285,-1.246637 1.696877,-1.664674 0.695056,-0.552845 0.511888,-0.306201 -0.671811,0.904603 -0.89508,0.915582 -1.658679,1.664675 -1.696877,1.664675 -0.03819,0 0.264125,-0.407062 0.671811,-0.904604 z m 180.58475,1.817746 c 0.0241,-0.164555 -0.22864,-0.49326 -0.56173,-0.730438 -0.3331,-0.237192 -0.5517,-0.485172 -0.48578,-0.551073 0.15905,-0.159052 -2.77647,-3.106981 -2.97296,-2.985531 -0.0839,0.05183 -0.34365,-0.174036 -0.57717,-0.501985 -0.38244,-0.537092 -0.83481,-0.696638 -1.13215,-0.399295 -0.0601,0.05996 0.0907,0.284567 0.3352,0.498966 0.24441,0.214383 0.37727,0.275028 0.29526,0.134734 -0.21012,-0.359324 0.18042,-0.318425 0.48703,0.05096 0.13967,0.16833 0.17591,0.30604 0.0805,0.30604 -0.0954,0 0.60004,0.77758 1.54547,1.727962 0.94545,0.950367 1.76127,1.68564 1.81296,1.633953 0.12791,-0.12791 0.6416,0.313794 0.6416,0.551581 0,0.105116 -0.1147,0.123991 -0.25504,0.04196 -0.14025,-0.08203 -0.0796,0.05081 0.13473,0.295253 0.40354,0.460026 0.57665,0.4406 0.65206,-0.07318 z m -2.88287,-2.577817 c -1.18371,-1.210804 -1.36687,-1.457448 -0.67181,-0.904603 0.80923,0.643644 2.58452,2.569278 2.36868,2.569278 -0.0382,0 -0.8018,-0.749093 -1.69687,-1.664675 z M 18.362886,52.038276 c -0.240416,-0.289692 -0.598868,-0.215719 -0.598868,0.123554 0,0.102068 0.15278,0.126894 0.339506,0.05531 0.246513,-0.09466 0.293757,-0.05618 0.172496,0.13996 -0.113536,0.183691 -0.08842,0.221643 0.07841,0.118473 0.186971,-0.115569 0.188975,-0.219741 0.0087,-0.437319 z M 186.778,52.325559 c -0.0992,-0.160505 -0.0363,-0.196018 0.19198,-0.108456 0.33697,0.129363 0.46277,-0.07376 0.20527,-0.331201 -0.18451,-0.184504 -0.70441,0.272749 -0.56555,0.497412 0.0614,0.09945 0.15769,0.180903 0.21381,0.180903 0.056,0 0.0356,-0.107439 -0.0454,-0.238688 z M 20.616281,50.621073 c -0.141993,-0.171031 -0.311194,-0.257852 -0.376122,-0.192925 -0.0649,0.0649 0.01699,0.203451 0.182094,0.307841 0.431917,0.273156 0.488352,0.239733 0.194028,-0.114844 z m 164.244899,-0.14388 c 0,-0.11949 -0.12966,-0.0996 -0.30603,0.0469 -0.16833,0.13967 -0.30604,0.285772 -0.30604,0.32461 0,0.03891 0.13778,0.01771 0.30604,-0.04675 0.16832,-0.06461 0.30603,-0.210668 0.30603,-0.324625 z M 31.582515,46.932297 c -0.0678,-0.0678 -0.24377,-0.07506 -0.391047,-0.01611 -0.16277,0.06519 -0.114408,0.113537 0.123264,0.123264 0.215066,0.0087 0.335572,-0.03934 0.267783,-0.107149 z m 142.410035,0 c -0.0678,-0.0678 -0.24377,-0.07506 -0.39105,-0.01611 -0.16275,0.06519 -0.11441,0.113537 0.12327,0.123264 0.21508,0.0087 0.33558,-0.03934 0.26778,-0.107149 z M 32.806663,46.728266 c -0.0678,-0.0678 -0.24377,-0.07506 -0.391048,-0.01611 -0.162755,0.06519 -0.114408,0.113535 0.123264,0.123263 0.21508,0.0087 0.335586,-0.03934 0.267784,-0.107148 z m 139.961747,0 c -0.0678,-0.0678 -0.24378,-0.07506 -0.39105,-0.01611 -0.16276,0.06519 -0.11441,0.113535 0.12326,0.123263 0.21508,0.0087 0.33557,-0.03934 0.26779,-0.107148 z M 34.753045,46.513679 c -0.138074,-0.0559 -0.413567,-0.05924 -0.612081,-0.0072 -0.198501,0.05168 -0.08552,0.09742 0.251159,0.101632 0.336632,0.0044 0.499053,-0.03819 0.360922,-0.09408 z m 136.289265,0 c -0.13807,-0.0559 -0.41357,-0.05924 -0.61207,-0.0072 -0.19852,0.05168 -0.0855,0.09742 0.25115,0.101632 0.33663,0.0044 0.49906,-0.03819 0.36092,-0.09408 z M 4.7063594,217.12311 c 0,-0.17494 0.091759,-0.31808 0.2040323,-0.31808 0.1122295,0 0.2040168,0.0864 0.2040168,0.19199 0,0.10554 -0.091758,0.24873 -0.2040168,0.31807 -0.1122304,0.0694 -0.2040323,-0.017 -0.2040323,-0.19198 z m 0,-145.698531 c 0,-0.174936 0.091759,-0.261337 0.2040323,-0.191981 0.1122295,0.0694 0.2040168,0.212496 0.2040168,0.318076 0,0.105551 -0.091758,0.191996 -0.2040168,0.191996 -0.1122304,0 -0.2040323,-0.143155 -0.2040323,-0.318091 z M 29.495505,46.647498 c -0.0694,-0.112229 0.01699,-0.204017 0.191981,-0.204017 0.174937,0 0.318077,0.09176 0.318077,0.204017 0,0.11223 -0.08639,0.204032 -0.191981,0.204032 -0.105552,0 -0.248735,-0.09176 -0.318077,-0.204032 z m 145.572435,0 c 0,-0.112229 0.14315,-0.204017 0.31807,-0.204017 0.17496,0 0.26134,0.09176 0.192,0.204017 -0.0694,0.11223 -0.21249,0.204032 -0.31809,0.204032 -0.10555,0 -0.19198,-0.09176 -0.19198,-0.204032 z" id="path6103"/><g inkscape:groupmode="layer" id="layer2" inkscape:label="Layer 2"/><path style="fill:#000000;stroke-width:0.140526" id="path6086" d=""/><path style="fill:#000000;stroke-width:0.140526" id="path6082" d=""/><path style="fill:#000000;stroke-width:0.196609" id="path6080" d=""/><g inkscape:label="Layer 1" inkscape:groupmode="layer" id="layer1"><g id="g212" transform="matrix(0.1772528,0,0,0.1772528,-7.3755247,38.666406)"><path style="fill:#fda698" d="m 253.87244,962.25 c -1.24387,-1.58606 -1.2085,-1.62143 0.37756,-0.37756 0.9625,0.75485 1.75,1.54235 1.75,1.75 0,0.82304 -0.82119,0.29331 -2.12756,-1.37244 z M 281.24192,904.28078 281,844.06156 268.75,843.747 l -12.25,-0.31456 12.28138,-0.21622 c 9.068,-0.15965 12.40647,0.11084 12.75944,1.03378 0.26293,0.6875 0.35767,28.025 0.21054,60.75 l -0.26753,59.5 z M 248,953 c -0.5887,-1.1 -0.84537,-2 -0.57037,-2 0.275,0 0.98167,0.9 1.57037,2 0.5887,1.1 0.84537,2 0.57037,2 -0.275,0 -0.98167,-0.9 -1.57037,-2 z m 6.87244,-30.75 c -1.24387,-1.58606 -1.2085,-1.62143 0.37756,-0.37756 0.9625,0.75485 1.75,1.54235 1.75,1.75 0,0.82304 -0.82119,0.29331 -2.12756,-1.37244 z M 225,916 c -0.5887,-1.1 -0.84537,-2 -0.57037,-2 0.275,0 0.98167,0.9 1.57037,2 0.5887,1.1 0.84537,2 0.57037,2 -0.275,0 -0.98167,-0.9 -1.57037,-2 z m -38.75,-72.74155 c 3.7125,-0.19241 9.7875,-0.19241 13.5,0 3.7125,0.19241 0.675,0.34983 -6.75,0.34983 -7.425,0 -10.4625,-0.15742 -6.75,-0.34983 z M 187.46909,698 c 0,-32.725 0.12615,-46.1125 0.28033,-29.75 0.15419,16.3625 0.15419,43.1375 0,59.5 -0.15418,16.3625 -0.28033,2.975 -0.28033,-29.75 z m 84.52488,-2.20426 c -0.27169,-5.88734 -0.1393,-10.34766 0.29419,-9.91183 0.43349,0.43583 0.65578,5.25274 0.49397,10.70425 L 272.48793,706.5 Z M 277.2109,649.2603 277,638.02059 l -44.75,-0.27085 -44.75,-0.27086 44.78138,-0.23944 c 36.29722,-0.19408 44.87718,0.0102 45.287,1.07816 0.27809,0.72469 0.35887,6.01219 0.17951,11.75 L 277.42179,660.5 Z M 212.42614,530.5 c 7.5e-4,-12.1 0.14515,-16.91256 0.32089,-10.69458 0.17573,6.21799 0.17511,16.11799 -0.001,22 -0.17649,5.88202 -0.32027,0.79458 -0.31951,-11.30542 z M 246.75,508.33772 c 0.6875,-0.27741 1.8125,-0.27741 2.5,0 0.6875,0.27741 0.125,0.50439 -1.25,0.50439 -1.375,0 -1.9375,-0.22698 -1.25,-0.50439 z m 14.33333,-3.70227 c 0.22917,-0.2005 1.54167,-0.90032 2.91667,-1.55516 2.35727,-1.12265 2.38918,-1.10183 0.55887,0.36454 -1.593,1.27626 -4.84786,2.39128 -3.47554,1.19062 z M 268.5,500 c 0.99549,-1.1 2.03498,-2 2.30998,-2 0.275,0 -0.31449,0.9 -1.30998,2 -0.99549,1.1 -2.03498,2 -2.30998,2 -0.275,0 0.31449,-0.9 1.30998,-2 z m 3.5,-3.37756 c 0,-0.20765 0.7875,-0.99515 1.75,-1.75 1.58606,-1.24387 1.62143,-1.2085 0.37756,0.37756 C 272.82119,496.91575 272,497.44548 272,496.62244 Z m -59.55653,-8.90916 c -0.27157,-0.7077 -0.36995,-8.9202 -0.21862,-18.25 L 212.5,452.5 l 13.75134,-0.0439 13.75134,-0.044 -13.50134,0.32218 L 213,453.05645 v 17.4419 17.44191 l 12.75,0.31254 12.75,0.31255 -12.78138,0.21733 c -9.65794,0.16422 -12.90205,-0.0971 -13.27515,-1.06939 z M 241.75,487.33772 c 0.6875,-0.27741 1.8125,-0.27741 2.5,0 0.6875,0.27741 0.125,0.50439 -1.25,0.50439 -1.375,0 -1.9375,-0.22698 -1.25,-0.50439 z M 251.5,483 c 0.99549,-1.1 2.03498,-2 2.30998,-2 0.275,0 -0.31449,0.9 -1.30998,2 -0.99549,1.1 -2.03498,2 -2.30998,2 -0.275,0 0.31449,-0.9 1.30998,-2 z m 28.57895,-1.58333 c 0.048,-1.16495 0.28494,-1.4019 0.60416,-0.60417 0.28887,0.72187 0.25335,1.58438 -0.0789,1.91667 -0.33229,0.33229 -0.56864,-0.25834 -0.52522,-1.3125 z M 281.232,475 c 0,-1.925 0.2058,-2.7125 0.45733,-1.75 0.25152,0.9625 0.25152,2.5375 0,3.5 -0.25153,0.9625 -0.45733,0.175 -0.45733,-1.75 z m -0.0371,-9.5 c 0.0204,-1.65 0.2445,-2.20394 0.49804,-1.23097 0.25354,0.97297 0.23687,2.32297 -0.0371,3 -0.27393,0.67703 -0.48137,-0.11903 -0.46099,-1.76903 z m -29.78996,-7.75 -1.90499,-2.25 2.25,1.90499 c 2.11444,1.79022 2.70524,2.59501 1.90499,2.59501 -0.18976,0 -1.20226,-1.0125 -2.25,-2.25 z M 247,455 c -0.90129,-0.58246 -1.02463,-0.97549 -0.30902,-0.98469 0.65504,-0.008 1.4691,0.43469 1.80902,0.98469 0.7673,1.24153 0.42112,1.24153 -1.5,0 z m 26.87244,-8.75 c -1.24387,-1.58606 -1.2085,-1.62143 0.37756,-0.37756 0.9625,0.75485 1.75,1.54235 1.75,1.75 0,0.82304 -0.82119,0.29331 -2.12756,-1.37244 z M 248.8125,432.31689 c 0.72187,-0.28887 1.58437,-0.25335 1.91667,0.0789 0.33229,0.33229 -0.25834,0.56864 -1.3125,0.52522 -1.16495,-0.048 -1.4019,-0.28494 -0.60417,-0.60416 z M 221.75,348.33772 c 0.6875,-0.27741 1.8125,-0.27741 2.5,0 0.6875,0.27741 0.125,0.50439 -1.25,0.50439 -1.375,0 -1.9375,-0.22698 -1.25,-0.50439 z m 15.51903,-0.0307 c 0.97297,-0.25354 2.32297,-0.23687 3,0.0371 0.67703,0.27393 -0.11903,0.48137 -1.76903,0.46099 -1.65,-0.0204 -2.20394,-0.2445 -1.23097,-0.49804 z M 215.8125,347.3169 c 0.72187,-0.28887 1.58437,-0.25335 1.91667,0.0789 0.33229,0.33229 -0.25834,0.56864 -1.3125,0.52522 -1.16495,-0.048 -1.4019,-0.28494 -0.60417,-0.60416 z M 207,345 c -0.825,-0.53316 -1.05,-0.96937 -0.5,-0.96937 0.55,0 1.675,0.43621 2.5,0.96937 0.825,0.53316 1.05,0.96937 0.5,0.96937 -0.55,0 -1.675,-0.43621 -2.5,-0.96937 z M 188.43709,332.75 185.5,329.5 l 3.25,2.93709 c 3.02946,2.73778 3.70965,3.56291 2.93709,3.56291 -0.1721,0 -1.6346,-1.4625 -3.25,-3.25 z M 272,332.5 c 1.86578,-1.925 3.61733,-3.5 3.89233,-3.5 0.275,0 -1.02655,1.575 -2.89233,3.5 -1.86578,1.925 -3.61733,3.5 -3.89233,3.5 -0.275,0 1.02655,-1.575 2.89233,-3.5 z m 4,-4.87756 c 0,-0.20765 0.7875,-0.99515 1.75,-1.75 1.58606,-1.24387 1.62143,-1.2085 0.37756,0.37756 C 276.82119,327.91575 276,328.44548 276,327.62244 Z m -52.25,-1.28472 c 0.6875,-0.27741 1.8125,-0.27741 2.5,0 0.6875,0.27741 0.125,0.50439 -1.25,0.50439 -1.375,0 -1.9375,-0.22698 -1.25,-0.50439 z m 11,0 c 0.6875,-0.27741 1.8125,-0.27741 2.5,0 0.6875,0.27741 0.125,0.50439 -1.25,0.50439 -1.375,0 -1.9375,-0.22698 -1.25,-0.50439 z m -56.29806,-7.43065 c -0.87968,-1.70111 -1.42188,-3.27046 -1.2049,-3.48744 0.21698,-0.21698 1.14288,1.17483 2.05756,3.09293 2.05658,4.3127 1.34401,4.64239 -0.85266,0.39451 z M 251,319.62244 c 0,-0.20765 0.7875,-0.99515 1.75,-1.75 1.58606,-1.24387 1.62143,-1.2085 0.37756,0.37756 C 251.82119,319.91575 251,320.44548 251,319.62244 Z m -77.92105,-15.20577 c 0.048,-1.16495 0.28494,-1.4019 0.60416,-0.60417 0.28887,0.72187 0.25335,1.58438 -0.0789,1.91667 -0.3323,0.33229 -0.56864,-0.25834 -0.52522,-1.3125 z M 288.15789,300 c 0,-1.375 0.22698,-1.9375 0.50439,-1.25 0.27741,0.6875 0.27741,1.8125 0,2.5 -0.27741,0.6875 -0.50439,0.125 -0.50439,-1.25 z m -116,-1 c 0,-1.375 0.22698,-1.9375 0.50439,-1.25 0.27741,0.6875 0.27741,1.8125 0,2.5 -0.27741,0.6875 -0.50439,0.125 -0.50439,-1.25 z m 89.92106,-2.58333 c 0.048,-1.16495 0.28494,-1.4019 0.60416,-0.60417 0.28887,0.72187 0.25335,1.58438 -0.0789,1.91667 -0.33229,0.33229 -0.56864,-0.25834 -0.52522,-1.3125 z m -64,-1 c 0.048,-1.16495 0.28494,-1.4019 0.60416,-0.60417 0.28887,0.72187 0.25335,1.58438 -0.0789,1.91667 -0.3323,0.33229 -0.56864,-0.25834 -0.52522,-1.3125 z M 289.34281,286.5 c 0.004,-4.4 0.17944,-6.07561 0.39069,-3.72357 0.21124,2.35204 0.20827,5.95204 -0.007,8 -0.21487,2.04796 -0.38771,0.12357 -0.38408,-4.27643 z m -118.01467,0 c 0.004,-3.85 0.18518,-5.30246 0.40166,-3.2277 0.21647,2.07477 0.21284,5.22477 -0.008,7 -0.22091,1.77524 -0.39803,0.0777 -0.39359,-3.7723 z m 91.86681,0 c 0.0204,-1.65 0.2445,-2.20394 0.49804,-1.23097 0.25354,0.97297 0.23687,2.32297 -0.0371,3 -0.27393,0.67703 -0.48137,-0.11903 -0.46099,-1.76903 z m -65.116,-9.08333 c 0.048,-1.16495 0.28494,-1.4019 0.60416,-0.60417 0.28887,0.72187 0.25335,1.58438 -0.0789,1.91667 -0.3323,0.33229 -0.56864,-0.25834 -0.52522,-1.3125 z m 64,-1 c 0.048,-1.16495 0.28494,-1.4019 0.60416,-0.60417 0.28887,0.72187 0.25335,1.58438 -0.0789,1.91667 -0.33229,0.33229 -0.56864,-0.25834 -0.52522,-1.3125 z M 172.15789,274 c 0,-1.375 0.22698,-1.9375 0.50439,-1.25 0.27741,0.6875 0.27741,1.8125 0,2.5 -0.27741,0.6875 -0.50439,0.125 -0.50439,-1.25 z m 116,-1 c 0,-1.375 0.22698,-1.9375 0.50439,-1.25 0.27741,0.6875 0.27741,1.8125 0,2.5 -0.27741,0.6875 -0.50439,0.125 -0.50439,-1.25 z m -115.07894,-4.58333 c 0.048,-1.16495 0.28494,-1.4019 0.60416,-0.60417 0.28887,0.72187 0.25335,1.58438 -0.0789,1.91667 -0.3323,0.33229 -0.56864,-0.25834 -0.52522,-1.3125 z M 202,263.3578 c 0,-0.53655 0.69982,-1.84905 1.55517,-2.91667 1.46637,-1.83031 1.48719,-1.7984 0.36454,0.55887 C 202.4619,264.06103 202,264.62834 202,263.3578 Z m 3,-5.73536 c 0,-0.20765 0.7875,-0.99515 1.75,-1.75 1.58606,-1.24387 1.62143,-1.2085 0.37756,0.37756 C 205.82119,257.91575 205,258.44548 205,257.62244 Z m 5,-5 c 0,-0.20765 0.7875,-0.99515 1.75,-1.75 1.58606,-1.24387 1.62143,-1.2085 0.37756,0.37756 C 210.82119,252.91575 210,253.44548 210,252.62244 Z m 5.44113,-4.06727 C 216.50875,247.69982 217.82125,247 218.3578,247 c 1.27054,0 0.70323,0.4619 -2.3578,1.91971 -2.35727,1.12265 -2.38918,1.10183 -0.55887,-0.36454 z m 12.32678,-3.2799 c 1.79735,-0.22256 4.49735,-0.21797 6,0.0102 1.50265,0.22818 0.0321,0.41027 -3.26791,0.40466 -3.3,-0.006 -4.52944,-0.1923 -2.73209,-0.41486 z M 275.87244,244.25 c -1.24387,-1.58606 -1.2085,-1.62143 0.37756,-0.37756 0.9625,0.75485 1.75,1.54235 1.75,1.75 0,0.82304 -0.82119,0.29331 -2.12756,-1.37244 z M 184,244.62244 c 0,-0.20765 0.7875,-0.99515 1.75,-1.75 1.58606,-1.24387 1.62143,-1.2085 0.37756,0.37756 C 184.82119,244.91575 184,245.44548 184,244.62244 Z m 8,-8 c 0,-0.20765 0.7875,-0.99515 1.75,-1.75 1.58606,-1.24387 1.62143,-1.2085 0.37756,0.37756 C 192.82119,236.91575 192,237.44548 192,236.62244 Z M 265.87244,234.25 c -1.24387,-1.58606 -1.2085,-1.62143 0.37756,-0.37756 1.66575,1.30637 2.19548,2.12756 1.37244,2.12756 -0.20765,0 -0.99515,-0.7875 -1.75,-1.75 z m -18.05994,-8.93311 c 0.72187,-0.28887 1.58437,-0.25335 1.91667,0.0789 0.33229,0.33229 -0.25834,0.56864 -1.3125,0.52522 -1.16495,-0.048 -1.4019,-0.28494 -0.60417,-0.60416 z M 215.75,224.33772 c 0.6875,-0.27741 1.8125,-0.27741 2.5,0 0.6875,0.27741 0.125,0.50439 -1.25,0.50439 -1.375,0 -1.9375,-0.22698 -1.25,-0.50439 z m 28.0625,-0.0208 c 0.72187,-0.28887 1.58437,-0.25335 1.91667,0.0789 0.33229,0.33229 -0.25834,0.56864 -1.3125,0.52522 -1.16495,-0.048 -1.4019,-0.28494 -0.60417,-0.60416 z M 222.25,223.31067 c 0.9625,-0.25152 2.5375,-0.25152 3.5,0 0.9625,0.25153 0.175,0.45733 -1.75,0.45733 -1.925,0 -2.7125,-0.2058 -1.75,-0.45733 z m 13,0 c 0.9625,-0.25152 2.5375,-0.25152 3.5,0 0.9625,0.25153 0.175,0.45733 -1.75,0.45733 -1.925,0 -2.7125,-0.2058 -1.75,-0.45733 z" id="path226"/><path style="fill:#fe8a76" d="M 180.47138,962.7819 C 180.2017,962.07686 180.10148,934.95 180.24867,902.5 l 0.26763,-59 0.24185,59.75 L 181,963 h 11.5 11.5 v -40 c 0,-37.39726 0.34055,-42.49407 2.59549,-38.84549 0.43951,0.71115 0.27459,0.88323 -0.42946,0.4481 -0.84837,-0.52432 -1.2104,9.55305 -1.40451,39.09549 L 204.5,963.5 l -11.76914,0.2819 c -8.85906,0.2122 -11.89039,-0.0351 -12.25948,-1 z m 81.82021,0.4756 c 3.73537,-0.19293 9.58537,-0.19149 13,0.003 3.41462,0.19468 0.35841,0.35253 -6.79159,0.35078 -7.15,-0.002 -9.94379,-0.16103 -6.20841,-0.35396 z M 211.81797,757.25082 c 12.27489,-0.1592 32.07489,-0.15901 44,4.1e-4 11.92512,0.15943 1.88203,0.28968 -22.31797,0.28945 -24.2,-2.3e-4 -33.95691,-0.13067 -21.68203,-0.28986 z M 213.39739,721 c 0,-7.975 0.1553,-11.2375 0.34512,-7.25 0.18981,3.9875 0.18981,10.5125 0,14.5 -0.18982,3.9875 -0.34512,0.725 -0.34512,-7.25 z m -0.012,-48 c 0,-6.875 0.15977,-9.6875 0.35504,-6.25 0.19527,3.4375 0.19527,9.0625 0,12.5 -0.19527,3.4375 -0.35504,0.625 -0.35504,-6.25 z M 229.813,659.25149 c 8.97214,-0.1659 23.37214,-0.16557 32,7.3e-4 8.62787,0.1663 1.28703,0.30204 -16.31297,0.30164 -17.6,-4e-4 -24.65916,-0.13647 -15.68703,-0.30237 z M 186.4882,492 186.5,432.5 l 30.5,-0.0217 30.5,-0.0217 -30.24214,0.28611 -30.24214,0.28612 -0.26966,59.23556 L 186.4764,551.5 Z m 33.7618,16.25543 c 4.8125,-0.18331 12.6875,-0.18331 17.5,0 4.8125,0.18332 0.875,0.3333 -8.75,0.3333 -9.625,0 -13.5625,-0.14998 -8.75,-0.3333 z m 30.5625,-0.93854 c 0.72187,-0.28887 1.58437,-0.25335 1.91667,0.0789 0.33229,0.33229 -0.25834,0.56864 -1.3125,0.52522 -1.16495,-0.048 -1.4019,-0.28494 -0.60417,-0.60416 z M 238.75,488.33772 c 0.6875,-0.27741 1.8125,-0.27741 2.5,0 0.6875,0.27741 0.125,0.50439 -1.25,0.50439 -1.375,0 -1.9375,-0.22698 -1.25,-0.50439 z M 256.15789,473 c 0,-1.375 0.22698,-1.9375 0.50439,-1.25 0.27741,0.6875 0.27741,1.8125 0,2.5 -0.27741,0.6875 -0.50439,0.125 -0.50439,-1.25 z m 25,-3 c 0,-1.375 0.22698,-1.9375 0.50439,-1.25 0.27741,0.6875 0.27741,1.8125 0,2.5 -0.27741,0.6875 -0.50439,0.125 -0.50439,-1.25 z m -25.07894,-2.58333 c 0.048,-1.16495 0.28494,-1.4019 0.60416,-0.60417 0.28887,0.72187 0.25335,1.58438 -0.0789,1.91667 -0.33229,0.33229 -0.56864,-0.25834 -0.52522,-1.3125 z m 24,-6 c 0.048,-1.16495 0.28494,-1.4019 0.60416,-0.60417 0.28887,0.72187 0.25335,1.58438 -0.0789,1.91667 -0.33229,0.33229 -0.56864,-0.25834 -0.52522,-1.3125 z m -39.26645,-9.09978 c 0.72187,-0.28887 1.58437,-0.25335 1.91667,0.0789 0.33229,0.33229 -0.25834,0.56864 -1.3125,0.52522 -1.16495,-0.048 -1.4019,-0.28494 -0.60417,-0.60416 z M 270.40499,442.75 268.5,440.5 l 2.25,1.90499 c 1.2375,1.04774 2.25,2.06024 2.25,2.25 0,0.80025 -0.80479,0.20945 -2.59501,-1.90499 z m -42.63708,-94.47473 c 1.79735,-0.22256 4.49735,-0.21797 6,0.0102 1.50265,0.22818 0.0321,0.41027 -3.26791,0.40466 -3.3,-0.006 -4.52944,-0.1923 -2.73209,-0.41486 z M 189,332.5 c -2.42903,-2.475 -4.19142,-4.5 -3.91642,-4.5 0.275,0 2.48739,2.025 4.91642,4.5 2.42903,2.475 4.19142,4.5 3.91642,4.5 -0.275,0 -2.48739,-2.025 -4.91642,-4.5 z m 40.8125,-5.18311 c 0.72187,-0.28887 1.58437,-0.25335 1.91667,0.0789 0.33229,0.33229 -0.25834,0.56864 -1.3125,0.52522 -1.16495,-0.048 -1.4019,-0.28494 -0.60417,-0.60416 z M 209.87244,320.25 c -1.24387,-1.58606 -1.2085,-1.62143 0.37756,-0.37756 1.66575,1.30637 2.19548,2.12756 1.37244,2.12756 -0.20765,0 -0.99515,-0.7875 -1.75,-1.75 z m -4,-4 c -1.24387,-1.58606 -1.2085,-1.62143 0.37756,-0.37756 1.66575,1.30637 2.19548,2.12756 1.37244,2.12756 -0.20765,0 -0.99515,-0.7875 -1.75,-1.75 z M 263.15789,291 c 0,-1.375 0.22698,-1.9375 0.50439,-1.25 0.27741,0.6875 0.27741,1.8125 0,2.5 -0.27741,0.6875 -0.50439,0.125 -0.50439,-1.25 z m -65.84802,-4.5 c 0.006,-3.3 0.1923,-4.52944 0.41486,-2.73209 0.22256,1.79735 0.21797,4.49735 -0.0102,6 -0.22818,1.50265 -0.41027,0.0321 -0.40466,-3.26791 z m 65.84802,-4.5 c 0,-1.375 0.22698,-1.9375 0.50439,-1.25 0.27741,0.6875 0.27741,1.8125 0,2.5 -0.27741,0.6875 -0.50439,0.125 -0.50439,-1.25 z m -10.7208,-28.25 -2.93709,-3.25 3.25,2.93709 c 3.02946,2.73778 3.70965,3.56291 2.93709,3.56291 -0.1721,0 -1.6346,-1.4625 -3.25,-3.25 z M 208,253.5 c 1.29175,-1.375 2.57363,-2.5 2.84863,-2.5 0.275,0 -0.55688,1.125 -1.84863,2.5 -1.29175,1.375 -2.57363,2.5 -2.84863,2.5 -0.275,0 0.55688,-1.125 1.84863,-2.5 z m 14.8125,-8.18311 c 0.72187,-0.28887 1.58437,-0.25335 1.91667,0.0789 0.33229,0.33229 -0.25834,0.56864 -1.3125,0.52522 -1.16495,-0.048 -1.4019,-0.28494 -0.60417,-0.60416 z m 14,0 c 0.72187,-0.28887 1.58437,-0.25335 1.91667,0.0789 0.33229,0.33229 -0.25834,0.56864 -1.3125,0.52522 -1.16495,-0.048 -1.4019,-0.28494 -0.60417,-0.60416 z M 270.94617,239.25 267.5,235.5 l 3.75,3.44617 c 2.0625,1.89539 3.75,3.58289 3.75,3.75 0,0.76362 -0.84622,0.0443 -4.05383,-3.44617 z M 189,239.5 c 1.29175,-1.375 2.57363,-2.5 2.84863,-2.5 0.275,0 -0.55688,1.125 -1.84863,2.5 -1.29175,1.375 -2.57363,2.5 -2.84863,2.5 -0.275,0 0.55688,-1.125 1.84863,-2.5 z m 39.76166,-16.20726 c 1.24391,-0.23919 3.04391,-0.23011 4,0.0202 0.95609,0.25029 -0.0617,0.446 -2.26166,0.4349 -2.2,-0.0111 -2.98225,-0.21589 -1.73834,-0.45508 z" id="path224"/><path style="fill:#008080" d="m 181,903.47012 v -59.52987 l 12.60385,0.27987 L 206.2077,844.5 231.35385,884.92947 256.5,925.35895 256.76122,884.67947 257.02243,844 H 269.01122 281 V 903.5 963 H 268.21696 255.43392 L 230.57484,923 C 216.90234,901 205.32971,883 204.85788,883 204.38605,883 204,901 204,923 v 40 H 192.5 181 Z M 188.36316,756.5 c -0.2102,-0.55 -0.2654,-27.325 -0.12267,-59.5 L 188.5,638.5 232.75,638.2396 277,637.9792 V 648.4896 659 H 245.51905 214.0381 l -0.55992,2.25 c -0.30796,1.2375 -0.42903,7.2 -0.26905,13.25 l 0.29087,11 29.25,0.2651 29.25,0.26511 V 696 705.96979 L 242.75,706.2349 213.5,706.5 v 14.5 14.5 l 32.78369,0.26371 32.7837,0.2637 -0.2837,10.50896 -0.28369,10.50895 -44.87733,0.22734 C 204.41505,757.42062 188.6119,757.15083 188.36316,756.5 Z M 187,492.45058 v -59.54942 l 33.75,0.29942 33.75,0.29942 5.54563,2.60111 c 14.93086,7.00315 21.81723,19.49982 20.69459,37.55443 -0.89654,14.41846 -7.23045,24.31667 -19.47643,30.43645 l -6.76379,3.38013 -21.25,0.3634 -21.25,0.36341 V 530.09946 552 H 199.5 187 Z m 57.47745,-4.56596 c 5.66457,-1.57261 11.08184,-7.31658 11.99435,-12.71771 1.68569,-9.97753 -1.88554,-17.63296 -9.93043,-21.28725 -3.34663,-1.52016 -6.66296,-1.83951 -19.29137,-1.8577 L 212,452 v 18.5 18.5 l 14.25,-0.006 c 7.8375,-0.003 16.03985,-0.50248 18.22745,-1.1098 z M 216,346.96947 c -2.475,-0.5078 -8.14876,-2.72388 -12.60835,-4.92462 -14.11747,-6.96676 -24.57944,-20.2772 -29.11713,-37.04485 -1.285,-4.74831 -1.73627,-10.00339 -1.67452,-19.5 0.0729,-11.2053 0.44791,-14.10443 2.71668,-21 6.79278,-20.64561 20.5117,-33.96638 40.14342,-38.97838 7.77427,-1.98478 22.20844,-1.94071 30.47601,0.093 27.36306,6.73108 44.5768,32.83541 42.7598,64.84445 -1.51465,26.68263 -13.83783,45.09658 -36.19591,54.08583 -6.17007,2.48073 -8.48201,2.84603 -19.5,3.08111 -6.875,0.14668 -14.525,-0.14878 -17,-0.65658 z m 26.17052,-21.61194 c 14.03787,-4.40465 22.8897,-22.18756 21.41121,-43.01411 -1.06263,-14.96868 -5.9172,-25.79248 -14.19371,-31.64648 -6.41132,-4.53474 -9.78666,-5.53443 -18.9783,-5.62086 -7.10834,-0.0668 -8.83303,0.29508 -14.20993,2.98195 -12.54535,6.26898 -18.6985,19.14064 -18.61578,38.94197 0.12653,30.28459 18.88454,46.42201 44.58651,38.35753 z" id="path220"/><path style="fill:#00ffff" d="m 572.7389,1073.4687 c -0.8489,-0.8489 -5.2872,-6.8208 -9.863,-13.2709 -4.5757,-6.4501 -10.8728,-14.3369 -13.9936,-17.5263 l -5.6742,-5.7988 -20.854,-2e-4 c -27.8743,-2e-4 -35.3009,-1.3912 -50.8541,-9.5249 l -8,-4.1837 -21.8477,-0.6982 c -22.6132,-0.7226 -24.514,-1.0975 -26.7507,-5.2769 -1.0869,-2.0309 -0.9034,-2.5195 1.6895,-4.4986 4.1973,-3.2036 13.2924,-13.0147 13.9678,-15.0675 0.3167,-0.9625 1.1421,-1.75 1.8342,-1.75 0.692,0 2.2915,-1.0998 3.5543,-2.444 1.8417,-1.9604 2.1619,-3.0981 1.6182,-5.75 -0.3728,-1.8183 -1.0866,-8.256 -1.5862,-14.306 -1.0359,-12.5439 -2.081,-16.9525 -6.3574,-26.8186 -0.9103,-2.1003 -1.3961,-4.2378 -1.0795,-4.75 0.3165,-0.5123 5.3865,-0.9341 11.2665,-0.9375 6.6857,0 11.6276,-0.4843 13.191,-1.2824 1.375,-0.702 4.525,-1.8676 7,-2.5902 2.475,-0.7227 8.1,-2.4458 12.5,-3.829 8.2248,-2.5857 7.6368,-2.5306 57,-5.3459 8.8,-0.5019 21.106,-1.2577 27.3466,-1.6795 l 11.3466,-0.7669 1.2888,-3.7594 c 2.3625,-6.8914 5.203,-9.3178 14.5067,-12.392 4.3626,-1.4415 7.0669,-1.854 8.1955,-1.25 0.9264,0.4958 3.4873,0.9014 5.691,0.9014 2.2037,0 4.2849,0.45 4.6248,1 0.3399,0.55 1.4364,1 2.4366,1 1.0002,0 2.3787,0.675 3.0634,1.5 0.8812,1.0619 3.2137,1.5 7.9849,1.5 6.0237,0 7.1533,0.328 10.6276,3.0853 2.1381,1.6969 4.6957,3.9503 5.6835,5.0075 2.2622,2.4213 5.3332,1.7587 12.2009,-2.6324 2.7517,-1.7594 9.7281,-5.5553 15.5031,-8.4353 5.775,-2.88 11.2814,-5.6388 12.2364,-6.1307 0.9551,-0.4919 7.0734,-0.8944 13.5964,-0.8944 15.3645,0 18.0007,1.1932 23.198,10.5 2.2326,3.998 6.2222,14.5803 5.6955,15.1071 -0.1534,0.1534 -4.5421,2.442 -9.7526,5.0859 -5.757,2.9212 -9.6005,5.4936 -9.797,6.557 -0.2237,1.2109 0.3195,1.75 1.7635,1.75 1.1478,0 2.8683,0.4016 3.8234,0.8924 2.7123,1.3938 13.916,3.2725 23.0156,3.8593 4.5536,0.2936 8.5177,0.9196 8.809,1.3911 0.6936,1.1222 9.1354,1.1135 9.8298,-0.01 0.2949,-0.477 2.55,-1.0943 5.0115,-1.3718 3.5142,-0.3961 6.6216,-2.0367 14.4675,-7.6383 5.4956,-3.9236 10.2772,-7.5954 10.6258,-8.1594 0.8262,-1.3367 21.4881,-14.7499 28.1125,-18.2499 7.5636,-3.9962 16.1673,-3.449 20.601,1.3101 1.4,1.5026 1.7637,3.6574 1.7637,10.4484 0,4.7055 -0.4358,9.3368 -0.9685,10.2918 -1.6319,2.9259 -4.0315,11.162 -4.0315,13.8371 0,1.392 -0.4527,3.3768 -1.0061,4.4107 -1.5089,2.8194 -1.6682,15.7144 -0.2121,17.1705 0.67,0.67 1.2201,1.9156 1.2224,2.7681 0,0.8525 1.031,3.575 2.2859,6.05 6.3467,12.5167 7.8753,25.4001 3.8158,32.1607 -1.2089,2.0134 -2.9382,3.9447 -3.8429,4.2919 -4.5148,1.7325 -25.2827,-3.7388 -32.263,-8.4996 -1.375,-0.9378 -4.075,-2.5698 -6,-3.6267 -1.925,-1.0569 -7.325,-4.398 -12,-7.4246 -10.3337,-6.6901 -14.2208,-7.9017 -25.3517,-7.9017 -7.8713,0 -11.3816,0.5 -21.6483,3.0835 -1.925,0.4844 -6.65,1.5999 -10.5,2.4789 -3.85,0.8789 -7.7875,1.8173 -8.75,2.0853 -2.4098,0.6708 -2.295,4.3523 0.1357,4.3523 1.0371,0 3.1746,0.6723 4.75,1.4939 1.5754,0.8216 3.5618,1.4966 4.4143,1.5 2.8108,0.011 3.9506,2.3316 3.9081,7.9561 -0.057,7.5216 -3.9093,14.2797 -11.0018,19.3 -8.8554,6.2681 -13.3447,4.984 -27.9563,-7.9963 -0.825,-0.7329 -3.7136,-2.8649 -6.419,-4.7378 -3.8678,-2.6776 -5.3153,-3.1933 -6.7732,-2.413 -2.0967,1.1221 -10.8078,12.7167 -10.8078,14.3854 0,1.6928 -8.3677,8.2749 -12.7476,10.0274 -3.2162,1.2869 -7.1319,1.501 -21.3456,1.1673 -9.5737,-0.2247 -20.3318,-0.888 -23.9068,-1.474 -17.2503,-2.8273 -21.2188,-1.7657 -12.5,3.3439 4.4077,2.5831 4.5,2.7425 4.5,7.7778 0,6.4404 -3.5765,13.8558 -9.4744,19.6442 -3.8249,3.7538 -4.3955,4.0123 -5.7867,2.6211 z M 964.5,1072.2545 c -20.7911,-3.7391 -34.3346,-16.529 -36.1429,-34.1318 l -0.642,-6.25 h 12.0289 12.0289 l 0.6625,4.4175 c 0.9793,6.5304 5.5836,12.244 12.371,15.3514 4.783,2.1897 7.0928,2.5947 14.79893,2.5947 7.837,0 9.895,-0.3737 14.5208,-2.6369 6.34697,-3.1053 8.87387,-6.781 8.87387,-12.9085 0,-8.1947 -5.25917,-12.0263 -22.99997,-16.7565 -26.05503,-6.947 -32.25283,-9.4883 -39.55333,-16.2176 -6.1842,-5.7004 -8.7821,-12.9304 -8.2083,-22.8441 1.1789,-20.366 18.476,-33.3675 44.26163,-33.2696 18.0246,0.068 29.61047,4.2335 38.33747,13.7822 5.0557,5.5318 7.388,10.7575 8.5858,19.2374 l 0.6003,4.25 h -12.384 -12.38397 l -0.6272,-3.9226 c -1.4148,-8.8474 -10.0097,-14.3215 -22.5738,-14.3774 -8.46133,-0.038 -14.74963,2.3788 -17.63003,6.7748 -2.1822,3.3305 -2.7814,9.498 -1.2115,12.4705 2.494,4.7224 6.2381,6.1917 34.49173,13.5356 15.08197,3.9203 19.70397,6.0112 25.88797,11.7114 6.0877,5.6115 8.1297,9.3106 9.3474,16.9337 1.2974,8.1209 -0.023,16.3615 -3.7149,23.1776 -8.6256,15.9269 -32.72097,23.7548 -58.7253,19.0782 z M 928,805.37273 v -59.5 l 28.25,0.0174 c 31.17903,0.0192 36.75153,0.6963 48.1085,5.84582 12.6068,5.71617 22.9739,19.17654 26.7581,34.74174 1.8606,7.65335 1.5813,30.64524 -0.4665,38.39508 -5.3514,20.25203 -18.0424,33.74153 -36.19157,38.46883 -4.6526,1.2118 -12.1962,1.5311 -36.16863,1.5311 H 928 Z m 59.61223,37.02253 c 17.10087,-5.07843 24.92277,-29.39156 17.34677,-53.91981 -2.3528,-7.61742 -7.79817,-14.45971 -14.04327,-17.64572 -5.055,-2.57888 -14.4206,-3.94049 -27.16573,-3.94945 l -10.75,-0.008 v 38.5 38.5 h 14.8185 c 10.16003,0 16.38263,-0.46447 19.79373,-1.47747 z M 487.6439,769.67471 c -0.3391,-1.26609 -0.6289,-3.87698 -0.6439,-5.80198 -0.037,-4.72472 -0.9967,-8 -2.3445,-8 -0.6112,0 -4.4962,3.34473 -8.6334,7.43272 -6.4253,6.34894 -7.9099,7.35516 -10.1814,6.90076 -4.9589,-0.99196 -4.0844,-3.64149 3.7803,-11.45369 4.0585,-4.03135 7.379,-7.95672 7.379,-8.72304 0,-1.13934 -1.5949,-1.26311 -8.75,-0.67904 l -8.75,0.71425 2.9371,-3.09598 c 1.6154,-1.70279 3.4976,-3.09598 4.1826,-3.09598 0.685,0 1.5312,-0.9 1.8803,-2 0.3491,-1.1 1.1858,-2 1.8592,-2 0.6734,0 3.2118,-2.025 5.6408,-4.5 2.429,-2.475 4.9064,-4.5 5.5053,-4.5 0.5988,0 2.8465,-1.8 4.9947,-4 2.1482,-2.2 4.4686,-4 5.1563,-4 0.6877,0 4.532,-2.91354 8.5428,-6.47454 4.0749,-3.61778 8.6181,-6.74597 10.2967,-7.0897 1.6523,-0.33835 6.0096,-1.27858 9.6829,-2.08941 l 6.6788,-1.47424 41.2055,-40.18605 c 22.663,-22.10233 41.8609,-40.33943 42.662,-40.52687 0.8237,-0.19271 1.3085,0.24185 1.1158,1 -0.1874,0.73744 -18.6968,19.3362 -41.1319,41.33057 -22.4351,21.99436 -40.9756,40.89436 -41.2011,42 -0.2255,1.10563 -0.5779,4.71024 -0.783,8.01024 -0.409,6.58007 -3.3249,11.8823 -10.1444,18.44617 -1.9692,1.89539 -3.5804,3.87121 -3.5804,4.39071 0,0.5195 -1.5916,2.79372 -3.5368,5.05383 -1.9453,2.26011 -5.7703,6.70155 -8.5,9.86988 -2.7298,3.16832 -4.9632,6.20582 -4.9632,6.75 0,0.54417 -0.6861,0.98941 -1.5247,0.98941 -0.8387,0 -1.9159,1.0125 -2.3939,2.25 -0.4781,1.2375 -1.9833,3.28589 -3.3451,4.55198 l -2.4758,2.30197 z M 746.5,761.59232 c -1.1,-0.67077 -10.146,-5.49459 -20.1023,-10.71959 -9.9563,-5.225 -19.1405,-10.20276 -20.4092,-11.06168 l -2.3069,-1.56168 4.6592,-2.73048 c 2.5626,-1.50176 4.6592,-3.09107 4.6592,-3.53181 0,-0.44073 -2.2644,-2.33426 -5.0321,-4.20784 -4.0308,-2.72867 -4.9275,-3.83397 -4.5065,-5.55472 0.2891,-1.18152 -0.097,-3.34735 -0.8569,-4.81296 -1.1512,-2.21893 -89.6019,-93.02198 -160.1988,-164.45924 l -18.2037,-18.42042 -7.851,-0.59182 c -8.4189,-0.63464 -9.9182,-1.36803 -19.5558,-9.56553 -2.5877,-2.201 -6.9832,-5.80182 -9.7678,-8.00182 -2.7846,-2.2 -7.5347,-6.1375 -10.5557,-8.75 -3.0211,-2.6125 -5.9381,-4.75 -6.4823,-4.75 -0.5442,0 -0.9894,-0.675 -0.9894,-1.5 0,-0.825 -0.4343,-1.5 -0.9652,-1.5 -0.5309,0 -2.6316,-1.4625 -4.6684,-3.25 l -3.7032,-3.25 2.9184,-0.63169 c 1.6051,-0.34742 4.9434,-0.69181 7.4184,-0.76531 8.3639,-0.24837 8.3322,-1.20267 -0.3306,-9.92496 -6.6672,-6.71302 -7.7815,-8.3148 -7.5,-10.78123 0.2387,-2.09135 0.9406,-2.98361 2.5244,-3.209 1.6338,-0.23249 4.0275,1.61819 9.3771,7.25 3.9509,4.15921 7.6209,7.56219 8.1557,7.56219 0.5837,0 0.8327,-3.59773 0.6229,-9.0005 -0.1922,-4.95028 -0.09,-9.00028 0.2262,-9 0.8975,7.8e-4 4.9243,4.52275 4.9243,5.52978 0,0.49521 0.8823,1.81621 1.9607,2.93555 2.3981,2.48914 10.1359,11.72709 15.5393,18.55196 2.2,2.77877 5.5965,6.94925 7.5478,9.26775 1.9513,2.3185 4.3107,5.34046 5.2431,6.71546 0.9324,1.375 2.3722,3.42808 3.1996,4.5624 0.8274,1.13432 2.2175,5.85932 3.0891,10.5 l 1.5847,8.4376 43.6679,44.92256 c 24.0173,24.7074 44.261,45.11763 44.986,45.35606 0.7258,0.23869 1.1882,-0.1759 1.029,-0.92256 -0.1591,-0.74583 19.8852,-21.13905 44.5428,-45.31825 24.6575,-24.17921 45.907,-45.37169 47.221,-47.09439 2.5155,-3.29798 3.0629,-5.44342 1.389,-5.44342 -2.1103,0 -0.7621,-1.62642 4.0599,-4.89771 2.7546,-1.86874 4.8502,-3.87205 4.6569,-4.45181 -0.1932,-0.57976 -2.4967,-1.60139 -5.1187,-2.27028 -2.6221,-0.66889 -4.9368,-1.38557 -5.1438,-1.59261 -0.2071,-0.20704 10.9654,-6.50953 24.8278,-14.00554 13.8623,-7.49601 25.3711,-13.46219 25.5751,-13.25818 0.204,0.20401 -0.5196,1.8571 -1.608,3.67353 -1.0884,1.81643 -5.9258,10.9526 -10.7496,20.3026 -4.8239,9.35 -9.4785,18.23207 -10.3436,19.73793 l -1.573,2.73793 -2.7933,-4.48793 c -1.5364,-2.46836 -3.2338,-4.48793 -3.7721,-4.48793 -0.5384,0 -2.6472,2.2348 -4.6864,4.96622 -2.7415,3.67212 -4.0308,4.69807 -4.9476,3.93717 -0.8678,-0.72017 -2.1442,-0.56144 -4.2525,0.52883 -1.657,0.85684 -24.2085,22.33603 -50.1145,47.73154 l -47.1019,46.17365 4.2927,4.53229 c 20.8446,22.00841 83.256,85.04033 85.2706,86.11853 1.9522,1.04475 2.8402,1.09354 3.729,0.20482 0.8887,-0.88871 2.0947,0.14187 5.0638,4.32726 2.1436,3.02159 4.279,5.25795 4.7454,4.96969 0.4664,-0.28826 1.4035,-3.00646 2.0825,-6.04045 0.679,-3.03399 1.5505,-5.16381 1.9367,-4.73295 0.8484,0.94643 26.9646,49.22448 26.9646,49.84631 0,0.76214 -1.4337,0.41669 -3.5,-0.84332 z M 963,660.30613 c -20.1373,-4.36081 -35.6833,-19.83107 -41.6362,-41.4334 -2.7949,-10.14228 -2.5589,-29.28623 0.4802,-38.96476 3.4863,-11.10251 7.4462,-18.2033 14.1448,-25.36407 10.5949,-11.32599 23.975,-16.62835 42.03133,-16.65639 17.5388,-0.0272 30.46367,5.33309 41.62117,17.26143 11.3106,12.09202 15.8323,25.20381 15.7683,45.72379 -0.037,11.88347 -0.3622,14.46733 -2.7151,21.57841 -9.7132,29.35473 -37.99957,44.71865 -69.6945,37.85499 z m 28.50003,-22.30859 c 10.69357,-5.12156 16.42337,-14.01425 18.52107,-28.74496 3.1811,-22.33927 -4.0512,-40.84417 -18.77947,-48.05007 -4.6923,-2.29575 -6.8643,-2.72669 -13.6605,-2.71037 -17.71533,0.0426 -28.57193,10.32774 -32.21093,30.51541 -3.9406,21.86156 2.9807,41.08534 17.498,48.60051 5.6115,2.90486 7.2062,3.26458 14.46923,3.26388 6.9302,-6.7e-4 9.0685,-0.43466 14.1626,-2.8744 z M 963.5684,454.70727 c -13.4771,-2.5737 -28.1362,-13.18146 -35.5595,-25.73203 -6.2608,-10.58504 -8.5184,-20.13864 -8.413,-35.60251 0.076,-11.19828 0.4534,-14.10875 2.7208,-21 8.6066,-26.15862 28.2181,-40.52993 55.24723,-40.48522 27.96837,0.0463 47.93577,15.36871 56.01597,42.98522 1.4724,5.03226 1.8889,9.54838 1.8447,20 -0.05,11.85888 -0.382,14.48205 -2.7301,21.57841 -6.5166,19.694 -21.7536,33.9957 -40.43717,37.95493 -7.5295,1.59556 -21.16153,1.73868 -28.68893,0.3012 z m 28.87653,-22.80786 c 12.27757,-5.94349 19.49897,-22.48158 18.14637,-41.5583 -1.3539,-19.09614 -9.0351,-31.79787 -21.79157,-36.03492 -7.259,-2.41105 -19.79213,-1.66465 -26.14243,1.55689 -9.2374,4.68622 -15.6106,15.30896 -17.6923,29.48906 -3.1352,21.35674 4.8827,41.34633 18.9623,47.27526 8.2118,3.45798 20.51963,3.14379 28.51763,-0.72799 z m -235.89663,-4.3486 c -3.8235,-2.84794 -8.8158,-6.97808 -11.094,-9.17808 -4.1116,-3.97046 -4.1514,-4.07894 -5.3901,-14.69048 -1.7098,-14.64788 -4.4089,-20.13224 -14.5853,-29.6358 -8.1191,-7.58242 -7.1935,-7.05779 -40.5963,-23.00933 -12.7018,-6.06578 -15.6853,-8.43184 -20.3826,-16.16439 -1.9664,-3.23706 -4.9013,-7.00136 -6.522,-8.3651 -6.3419,-5.33629 -22.1738,-9.54288 -58.978,-15.67059 -37.2906,-6.2087 -67.242,-13.62351 -82.8882,-20.51992 -10.5649,-4.65672 -32.99,-13.44439 -34.3085,-13.44439 -1.3062,0 -0.5635,12.76761 1.2091,20.78526 1.0438,4.72151 1.7519,5.7163 6.6387,9.32638 6.0747,4.4876 7.1638,6.20157 5.3383,8.40109 -2.6332,3.17285 -7.2834,1.39369 -18.7867,-7.18778 -8.7576,-6.53309 -9.7488,-8.57047 -8.3488,-17.1592 1.2866,-7.89253 0.5503,-9.98779 -5.91,-16.81861 -5.9873,-6.33064 -6.4754,-9.50381 -1.8314,-11.90533 7.5034,-3.88015 24.9002,-2.56647 41.3126,3.11963 14.8153,5.13282 17.3771,4.71715 18.8683,-3.06144 0.3163,-1.65 3.7628,-8.625 7.6589,-15.5 9.8636,-17.40523 11.2203,-21.33396 11.8101,-34.20051 l 0.4904,-10.70051 -2.8764,-2.86758 c -2.308,-2.30092 -4.6549,-3.21647 -11.8764,-4.63313 -11.4122,-2.23874 -17.0823,-4.67717 -18.0169,-7.74818 -0.3934,-1.29255 -1.788,-3.78257 -3.0992,-5.53337 -1.3111,-1.7508 -2.3839,-3.37625 -2.3839,-3.61212 0,-0.23586 6.4125,-0.67382 14.25,-0.97325 9.4413,-0.3607 15.9373,-1.11451 19.25,-2.23381 3.386,-1.14407 9.7873,-1.86052 19.8306,-2.21951 13.2954,-0.47524 15.073,-0.74996 17.1729,-2.65407 1.2883,-1.16818 3.727,-3.17069 5.4194,-4.45002 3.4835,-2.63329 3.9853,-6.0645 1.6902,-11.5574 -1.762,-4.21723 -5.3073,-6.72127 -14.9258,-10.54215 -12.4803,-4.9577 -24.3159,-11.03949 -28.3852,-14.58593 -3.7797,-3.29402 -3.7923,-3.33005 -2.1311,-6.12465 2.288,-3.8491 3.3434,-3.95034 4.7894,-0.45946 1.2878,3.10897 9.3873,10.09565 11.7037,10.09565 1.0367,0 1.3359,-2.56255 1.3359,-11.44098 0,-7.02443 0.4117,-11.69544 1.0665,-12.10014 1.556,-0.96165 1.7303,-0.57301 3.4076,7.59747 2.1889,10.6628 4.1812,15.42119 7.1138,16.99072 4.0903,2.18905 5.9121,0.28702 5.9121,-6.17251 0,-6.12136 0.7924,-7.87456 3.559,-7.87456 2.2272,0 2.4669,1.9037 0.815,6.47188 -0.947,2.61882 -0.7999,3.75301 0.925,7.13406 3.9162,7.67636 12.6817,14.0691 16.2594,11.85799 0.6089,-0.37634 1.9539,-2.65969 2.9888,-5.0741 1.8921,-4.41396 4.9528,-6.00286 4.9528,-2.5711 0,1.0003 -1.8195,4.7128 -4.0433,8.25 -5.9494,9.4632 -10.9567,20.37008 -10.9567,23.86573 0,3.57292 0.7103,3.7347 5.1928,1.18272 4.2758,-2.43428 8.8072,-3.49906 8.8072,-2.06951 0,1.89569 -5.2202,8.01483 -8.114,9.51128 -1.5327,0.79258 -3.6932,1.44105 -4.8012,1.44105 -3.5614,0 -4.3181,3.53469 -4.7563,22.21804 -0.6234,26.57319 2.2075,35.45112 15.5917,48.89634 6.3248,6.35363 9.3183,8.46149 18.0798,12.73065 19.0731,9.29365 46.3705,17.00689 71.5,20.20328 7.1875,0.91423 10.8542,2.04522 18.207,5.61604 14.5755,7.07843 21.3092,6.85281 37.4341,-1.25425 4.2404,-2.13198 4.7497,-2.78629 5.8998,-7.58067 l 1.2588,-5.24729 3.3322,3.85477 c 4.1169,4.76257 5.2212,9.61216 2.9708,13.04669 -2.4026,3.66685 -6.322,5.27737 -14.6467,6.01843 -14.8319,1.32035 -16.7964,2.79927 -14.4482,10.8768 l 1.6127,5.54749 -3.5602,7.22682 c -2.9904,6.07009 -3.5587,8.27683 -3.5505,13.78684 0.017,11.28078 5.2979,19.5616 21.6085,33.88223 4.4651,3.92032 8.6924,8.51372 9.394,10.20756 0.8749,2.11215 1.0827,5.58228 0.6614,11.04528 -1.0993,14.25648 2.5145,25.12094 10.0373,30.17547 4.6108,3.09793 6.8743,7.78737 5.2362,10.84815 -1.467,2.74109 -2.6484,2.35248 -10.3989,-3.42059 z m 171.054,-193.92808 c -2.0746,-7.8375 -5.0368,-18.975 -6.5826,-24.75 -1.5458,-5.775 -5.818,-21.975 -9.4937,-36 -3.6757,-14.025 -7.5017,-28.425 -8.5021,-32 -1.0004,-3.575 -2.0987,-7.7375 -2.4405,-9.25 l -0.6215,-2.75 h 12.4318 12.4318 l 2.5289,10.75 c 2.191,9.31339 11.1887,47.95226 14.9445,64.17583 0.6908,2.9842 1.7433,5.58824 2.3388,5.78674 0.5964,0.19878 1.5311,-1.78942 2.0808,-4.42583 0.7945,-3.81015 13.9122,-55.60444 18.3711,-72.53674 l 0.9875,-3.75 h 11.92293 11.9229 l 0.9534,3.75 c 0.5243,2.0625 5.1194,20.5125 10.21117,41 5.0918,20.4875 9.6128,37.25 10.0466,37.25 0.4338,0 1.2036,-1.6875 1.7106,-3.75 0.9122,-3.71063 4.3079,-18.03687 10.0146,-42.25 1.6203,-6.875 4.2075,-17.7875 5.7494,-24.25 l 2.8033,-11.75 h 12.2004 c 12.1388,0 12.1977,0.0114 11.6833,2.25 -0.2843,1.2375 -3.1225,11.925 -6.307,23.75 -3.1845,11.825 -8.8008,32.75 -12.4807,46.5 -3.6798,13.75 -7.5571,28.15 -8.6161,32 -1.059,3.85 -2.3899,8.70078 -2.9576,10.77951 l -1.0323,3.77951 -12.5691,-0.27951 -12.56907,-0.27951 -10.0284,-40.5 c -5.5156,-22.275 -10.1875,-40.6875 -10.3819,-40.91667 -1.0236,-1.20653 -2.3705,3.79206 -14.79813,54.91667 -3.1418,12.925 -5.9324,24.2875 -6.2013,25.25 -0.4329,1.54956 -1.9487,1.75 -13.2343,1.75 h -12.7455 z" id="path214"/></g></g></svg>