<svg xmlns:inkscape="http://www.inkscape.org/namespaces/inkscape" xmlns:sodipodi="http://sodipodi.sourceforge.net/DTD/sodipodi-0.dtd" xmlns="http://www.w3.org/2000/svg" xmlns:svg="http://www.w3.org/2000/svg" version="1.1" id="svg279" sodipodi:docname="OpenWoods_Logo.svg" inkscape:version="1.2.1 (9c6d41e, 2022-07-14)" viewBox="10.24 57.24 165.1 180.44">
  <sodipodi:namedview id="namedview281" pagecolor="#ffffff" bordercolor="#666666" borderopacity="1.0" inkscape:showpageshadow="2" inkscape:pageopacity="0.0" inkscape:pagecheckerboard="0" inkscape:deskcolor="#d1d1d1" inkscape:document-units="mm" showgrid="false" inkscape:zoom="0.3654548" inkscape:cx="150.49741" inkscape:cy="689.55176" inkscape:window-width="1440" inkscape:window-height="746" inkscape:window-x="0" inkscape:window-y="25" inkscape:window-maximized="0" inkscape:current-layer="layer1"/>
  <defs id="defs276"/>
  <g inkscape:label="Layer 1" inkscape:groupmode="layer" id="layer1">
    <g id="g212" transform="matrix(0.18673954,0,0,0.18673954,232.30769,34.603689)">
      <g id="g173" transform="translate(-1360.515,13.273318)">
        <path style="fill:#fda698" d="m 253.87244,962.25 c -1.24387,-1.58606 -1.2085,-1.62143 0.37756,-0.37756 0.9625,0.75485 1.75,1.54235 1.75,1.75 0,0.82304 -0.82119,0.29331 -2.12756,-1.37244 z M 281.24192,904.28078 281,844.06156 268.75,843.747 l -12.25,-0.31456 12.28138,-0.21622 c 9.068,-0.15965 12.40647,0.11084 12.75944,1.03378 0.26293,0.6875 0.35767,28.025 0.21054,60.75 l -0.26753,59.5 z M 248,953 c -0.5887,-1.1 -0.84537,-2 -0.57037,-2 0.275,0 0.98167,0.9 1.57037,2 0.5887,1.1 0.84537,2 0.57037,2 -0.275,0 -0.98167,-0.9 -1.57037,-2 z m 6.87244,-30.75 c -1.24387,-1.58606 -1.2085,-1.62143 0.37756,-0.37756 0.9625,0.75485 1.75,1.54235 1.75,1.75 0,0.82304 -0.82119,0.29331 -2.12756,-1.37244 z M 225,916 c -0.5887,-1.1 -0.84537,-2 -0.57037,-2 0.275,0 0.98167,0.9 1.57037,2 0.5887,1.1 0.84537,2 0.57037,2 -0.275,0 -0.98167,-0.9 -1.57037,-2 z m -38.75,-72.74155 c 3.7125,-0.19241 9.7875,-0.19241 13.5,0 3.7125,0.19241 0.675,0.34983 -6.75,0.34983 -7.425,0 -10.4625,-0.15742 -6.75,-0.34983 z M 187.46909,698 c 0,-32.725 0.12615,-46.1125 0.28033,-29.75 0.15419,16.3625 0.15419,43.1375 0,59.5 -0.15418,16.3625 -0.28033,2.975 -0.28033,-29.75 z m 84.52488,-2.20426 c -0.27169,-5.88734 -0.1393,-10.34766 0.29419,-9.91183 0.43349,0.43583 0.65578,5.25274 0.49397,10.70425 L 272.48793,706.5 Z M 277.2109,649.2603 277,638.02059 l -44.75,-0.27085 -44.75,-0.27086 44.78138,-0.23944 c 36.29722,-0.19408 44.87718,0.0102 45.287,1.07816 0.27809,0.72469 0.35887,6.01219 0.17951,11.75 L 277.42179,660.5 Z M 212.42614,530.5 c 7.5e-4,-12.1 0.14515,-16.91256 0.32089,-10.69458 0.17573,6.21799 0.17511,16.11799 -0.001,22 -0.17649,5.88202 -0.32027,0.79458 -0.31951,-11.30542 z M 246.75,508.33772 c 0.6875,-0.27741 1.8125,-0.27741 2.5,0 0.6875,0.27741 0.125,0.50439 -1.25,0.50439 -1.375,0 -1.9375,-0.22698 -1.25,-0.50439 z m 14.33333,-3.70227 c 0.22917,-0.2005 1.54167,-0.90032 2.91667,-1.55516 2.35727,-1.12265 2.38918,-1.10183 0.55887,0.36454 -1.593,1.27626 -4.84786,2.39128 -3.47554,1.19062 z M 268.5,500 c 0.99549,-1.1 2.03498,-2 2.30998,-2 0.275,0 -0.31449,0.9 -1.30998,2 -0.99549,1.1 -2.03498,2 -2.30998,2 -0.275,0 0.31449,-0.9 1.30998,-2 z m 3.5,-3.37756 c 0,-0.20765 0.7875,-0.99515 1.75,-1.75 1.58606,-1.24387 1.62143,-1.2085 0.37756,0.37756 C 272.82119,496.91575 272,497.44548 272,496.62244 Z m -59.55653,-8.90916 c -0.27157,-0.7077 -0.36995,-8.9202 -0.21862,-18.25 L 212.5,452.5 l 13.75134,-0.0439 13.75134,-0.044 -13.50134,0.32218 L 213,453.05645 v 17.4419 17.44191 l 12.75,0.31254 12.75,0.31255 -12.78138,0.21733 c -9.65794,0.16422 -12.90205,-0.0971 -13.27515,-1.06939 z M 241.75,487.33772 c 0.6875,-0.27741 1.8125,-0.27741 2.5,0 0.6875,0.27741 0.125,0.50439 -1.25,0.50439 -1.375,0 -1.9375,-0.22698 -1.25,-0.50439 z M 251.5,483 c 0.99549,-1.1 2.03498,-2 2.30998,-2 0.275,0 -0.31449,0.9 -1.30998,2 -0.99549,1.1 -2.03498,2 -2.30998,2 -0.275,0 0.31449,-0.9 1.30998,-2 z m 28.57895,-1.58333 c 0.048,-1.16495 0.28494,-1.4019 0.60416,-0.60417 0.28887,0.72187 0.25335,1.58438 -0.0789,1.91667 -0.33229,0.33229 -0.56864,-0.25834 -0.52522,-1.3125 z M 281.232,475 c 0,-1.925 0.2058,-2.7125 0.45733,-1.75 0.25152,0.9625 0.25152,2.5375 0,3.5 -0.25153,0.9625 -0.45733,0.175 -0.45733,-1.75 z m -0.0371,-9.5 c 0.0204,-1.65 0.2445,-2.20394 0.49804,-1.23097 0.25354,0.97297 0.23687,2.32297 -0.0371,3 -0.27393,0.67703 -0.48137,-0.11903 -0.46099,-1.76903 z m -29.78996,-7.75 -1.90499,-2.25 2.25,1.90499 c 2.11444,1.79022 2.70524,2.59501 1.90499,2.59501 -0.18976,0 -1.20226,-1.0125 -2.25,-2.25 z M 247,455 c -0.90129,-0.58246 -1.02463,-0.97549 -0.30902,-0.98469 0.65504,-0.008 1.4691,0.43469 1.80902,0.98469 0.7673,1.24153 0.42112,1.24153 -1.5,0 z m 26.87244,-8.75 c -1.24387,-1.58606 -1.2085,-1.62143 0.37756,-0.37756 0.9625,0.75485 1.75,1.54235 1.75,1.75 0,0.82304 -0.82119,0.29331 -2.12756,-1.37244 z M 248.8125,432.31689 c 0.72187,-0.28887 1.58437,-0.25335 1.91667,0.0789 0.33229,0.33229 -0.25834,0.56864 -1.3125,0.52522 -1.16495,-0.048 -1.4019,-0.28494 -0.60417,-0.60416 z M 221.75,348.33772 c 0.6875,-0.27741 1.8125,-0.27741 2.5,0 0.6875,0.27741 0.125,0.50439 -1.25,0.50439 -1.375,0 -1.9375,-0.22698 -1.25,-0.50439 z m 15.51903,-0.0307 c 0.97297,-0.25354 2.32297,-0.23687 3,0.0371 0.67703,0.27393 -0.11903,0.48137 -1.76903,0.46099 -1.65,-0.0204 -2.20394,-0.2445 -1.23097,-0.49804 z M 215.8125,347.3169 c 0.72187,-0.28887 1.58437,-0.25335 1.91667,0.0789 0.33229,0.33229 -0.25834,0.56864 -1.3125,0.52522 -1.16495,-0.048 -1.4019,-0.28494 -0.60417,-0.60416 z M 207,345 c -0.825,-0.53316 -1.05,-0.96937 -0.5,-0.96937 0.55,0 1.675,0.43621 2.5,0.96937 0.825,0.53316 1.05,0.96937 0.5,0.96937 -0.55,0 -1.675,-0.43621 -2.5,-0.96937 z M 188.43709,332.75 185.5,329.5 l 3.25,2.93709 c 3.02946,2.73778 3.70965,3.56291 2.93709,3.56291 -0.1721,0 -1.6346,-1.4625 -3.25,-3.25 z M 272,332.5 c 1.86578,-1.925 3.61733,-3.5 3.89233,-3.5 0.275,0 -1.02655,1.575 -2.89233,3.5 -1.86578,1.925 -3.61733,3.5 -3.89233,3.5 -0.275,0 1.02655,-1.575 2.89233,-3.5 z m 4,-4.87756 c 0,-0.20765 0.7875,-0.99515 1.75,-1.75 1.58606,-1.24387 1.62143,-1.2085 0.37756,0.37756 C 276.82119,327.91575 276,328.44548 276,327.62244 Z m -52.25,-1.28472 c 0.6875,-0.27741 1.8125,-0.27741 2.5,0 0.6875,0.27741 0.125,0.50439 -1.25,0.50439 -1.375,0 -1.9375,-0.22698 -1.25,-0.50439 z m 11,0 c 0.6875,-0.27741 1.8125,-0.27741 2.5,0 0.6875,0.27741 0.125,0.50439 -1.25,0.50439 -1.375,0 -1.9375,-0.22698 -1.25,-0.50439 z m -56.29806,-7.43065 c -0.87968,-1.70111 -1.42188,-3.27046 -1.2049,-3.48744 0.21698,-0.21698 1.14288,1.17483 2.05756,3.09293 2.05658,4.3127 1.34401,4.64239 -0.85266,0.39451 z M 251,319.62244 c 0,-0.20765 0.7875,-0.99515 1.75,-1.75 1.58606,-1.24387 1.62143,-1.2085 0.37756,0.37756 C 251.82119,319.91575 251,320.44548 251,319.62244 Z m -77.92105,-15.20577 c 0.048,-1.16495 0.28494,-1.4019 0.60416,-0.60417 0.28887,0.72187 0.25335,1.58438 -0.0789,1.91667 -0.3323,0.33229 -0.56864,-0.25834 -0.52522,-1.3125 z M 288.15789,300 c 0,-1.375 0.22698,-1.9375 0.50439,-1.25 0.27741,0.6875 0.27741,1.8125 0,2.5 -0.27741,0.6875 -0.50439,0.125 -0.50439,-1.25 z m -116,-1 c 0,-1.375 0.22698,-1.9375 0.50439,-1.25 0.27741,0.6875 0.27741,1.8125 0,2.5 -0.27741,0.6875 -0.50439,0.125 -0.50439,-1.25 z m 89.92106,-2.58333 c 0.048,-1.16495 0.28494,-1.4019 0.60416,-0.60417 0.28887,0.72187 0.25335,1.58438 -0.0789,1.91667 -0.33229,0.33229 -0.56864,-0.25834 -0.52522,-1.3125 z m -64,-1 c 0.048,-1.16495 0.28494,-1.4019 0.60416,-0.60417 0.28887,0.72187 0.25335,1.58438 -0.0789,1.91667 -0.3323,0.33229 -0.56864,-0.25834 -0.52522,-1.3125 z M 289.34281,286.5 c 0.004,-4.4 0.17944,-6.07561 0.39069,-3.72357 0.21124,2.35204 0.20827,5.95204 -0.007,8 -0.21487,2.04796 -0.38771,0.12357 -0.38408,-4.27643 z m -118.01467,0 c 0.004,-3.85 0.18518,-5.30246 0.40166,-3.2277 0.21647,2.07477 0.21284,5.22477 -0.008,7 -0.22091,1.77524 -0.39803,0.0777 -0.39359,-3.7723 z m 91.86681,0 c 0.0204,-1.65 0.2445,-2.20394 0.49804,-1.23097 0.25354,0.97297 0.23687,2.32297 -0.0371,3 -0.27393,0.67703 -0.48137,-0.11903 -0.46099,-1.76903 z m -65.116,-9.08333 c 0.048,-1.16495 0.28494,-1.4019 0.60416,-0.60417 0.28887,0.72187 0.25335,1.58438 -0.0789,1.91667 -0.3323,0.33229 -0.56864,-0.25834 -0.52522,-1.3125 z m 64,-1 c 0.048,-1.16495 0.28494,-1.4019 0.60416,-0.60417 0.28887,0.72187 0.25335,1.58438 -0.0789,1.91667 -0.33229,0.33229 -0.56864,-0.25834 -0.52522,-1.3125 z M 172.15789,274 c 0,-1.375 0.22698,-1.9375 0.50439,-1.25 0.27741,0.6875 0.27741,1.8125 0,2.5 -0.27741,0.6875 -0.50439,0.125 -0.50439,-1.25 z m 116,-1 c 0,-1.375 0.22698,-1.9375 0.50439,-1.25 0.27741,0.6875 0.27741,1.8125 0,2.5 -0.27741,0.6875 -0.50439,0.125 -0.50439,-1.25 z m -115.07894,-4.58333 c 0.048,-1.16495 0.28494,-1.4019 0.60416,-0.60417 0.28887,0.72187 0.25335,1.58438 -0.0789,1.91667 -0.3323,0.33229 -0.56864,-0.25834 -0.52522,-1.3125 z M 202,263.3578 c 0,-0.53655 0.69982,-1.84905 1.55517,-2.91667 1.46637,-1.83031 1.48719,-1.7984 0.36454,0.55887 C 202.4619,264.06103 202,264.62834 202,263.3578 Z m 3,-5.73536 c 0,-0.20765 0.7875,-0.99515 1.75,-1.75 1.58606,-1.24387 1.62143,-1.2085 0.37756,0.37756 C 205.82119,257.91575 205,258.44548 205,257.62244 Z m 5,-5 c 0,-0.20765 0.7875,-0.99515 1.75,-1.75 1.58606,-1.24387 1.62143,-1.2085 0.37756,0.37756 C 210.82119,252.91575 210,253.44548 210,252.62244 Z m 5.44113,-4.06727 C 216.50875,247.69982 217.82125,247 218.3578,247 c 1.27054,0 0.70323,0.4619 -2.3578,1.91971 -2.35727,1.12265 -2.38918,1.10183 -0.55887,-0.36454 z m 12.32678,-3.2799 c 1.79735,-0.22256 4.49735,-0.21797 6,0.0102 1.50265,0.22818 0.0321,0.41027 -3.26791,0.40466 -3.3,-0.006 -4.52944,-0.1923 -2.73209,-0.41486 z M 275.87244,244.25 c -1.24387,-1.58606 -1.2085,-1.62143 0.37756,-0.37756 0.9625,0.75485 1.75,1.54235 1.75,1.75 0,0.82304 -0.82119,0.29331 -2.12756,-1.37244 z M 184,244.62244 c 0,-0.20765 0.7875,-0.99515 1.75,-1.75 1.58606,-1.24387 1.62143,-1.2085 0.37756,0.37756 C 184.82119,244.91575 184,245.44548 184,244.62244 Z m 8,-8 c 0,-0.20765 0.7875,-0.99515 1.75,-1.75 1.58606,-1.24387 1.62143,-1.2085 0.37756,0.37756 C 192.82119,236.91575 192,237.44548 192,236.62244 Z M 265.87244,234.25 c -1.24387,-1.58606 -1.2085,-1.62143 0.37756,-0.37756 1.66575,1.30637 2.19548,2.12756 1.37244,2.12756 -0.20765,0 -0.99515,-0.7875 -1.75,-1.75 z m -18.05994,-8.93311 c 0.72187,-0.28887 1.58437,-0.25335 1.91667,0.0789 0.33229,0.33229 -0.25834,0.56864 -1.3125,0.52522 -1.16495,-0.048 -1.4019,-0.28494 -0.60417,-0.60416 z M 215.75,224.33772 c 0.6875,-0.27741 1.8125,-0.27741 2.5,0 0.6875,0.27741 0.125,0.50439 -1.25,0.50439 -1.375,0 -1.9375,-0.22698 -1.25,-0.50439 z m 28.0625,-0.0208 c 0.72187,-0.28887 1.58437,-0.25335 1.91667,0.0789 0.33229,0.33229 -0.25834,0.56864 -1.3125,0.52522 -1.16495,-0.048 -1.4019,-0.28494 -0.60417,-0.60416 z M 222.25,223.31067 c 0.9625,-0.25152 2.5375,-0.25152 3.5,0 0.9625,0.25153 0.175,0.45733 -1.75,0.45733 -1.925,0 -2.7125,-0.2058 -1.75,-0.45733 z m 13,0 c 0.9625,-0.25152 2.5375,-0.25152 3.5,0 0.9625,0.25153 0.175,0.45733 -1.75,0.45733 -1.925,0 -2.7125,-0.2058 -1.75,-0.45733 z" id="path226"/>
        <path style="fill:#fe8a76" d="M 180.47138,962.7819 C 180.2017,962.07686 180.10148,934.95 180.24867,902.5 l 0.26763,-59 0.24185,59.75 L 181,963 h 11.5 11.5 v -40 c 0,-37.39726 0.34055,-42.49407 2.59549,-38.84549 0.43951,0.71115 0.27459,0.88323 -0.42946,0.4481 -0.84837,-0.52432 -1.2104,9.55305 -1.40451,39.09549 L 204.5,963.5 l -11.76914,0.2819 c -8.85906,0.2122 -11.89039,-0.0351 -12.25948,-1 z m 81.82021,0.4756 c 3.73537,-0.19293 9.58537,-0.19149 13,0.003 3.41462,0.19468 0.35841,0.35253 -6.79159,0.35078 -7.15,-0.002 -9.94379,-0.16103 -6.20841,-0.35396 z M 211.81797,757.25082 c 12.27489,-0.1592 32.07489,-0.15901 44,4.1e-4 11.92512,0.15943 1.88203,0.28968 -22.31797,0.28945 -24.2,-2.3e-4 -33.95691,-0.13067 -21.68203,-0.28986 z M 213.39739,721 c 0,-7.975 0.1553,-11.2375 0.34512,-7.25 0.18981,3.9875 0.18981,10.5125 0,14.5 -0.18982,3.9875 -0.34512,0.725 -0.34512,-7.25 z m -0.012,-48 c 0,-6.875 0.15977,-9.6875 0.35504,-6.25 0.19527,3.4375 0.19527,9.0625 0,12.5 -0.19527,3.4375 -0.35504,0.625 -0.35504,-6.25 z M 229.813,659.25149 c 8.97214,-0.1659 23.37214,-0.16557 32,7.3e-4 8.62787,0.1663 1.28703,0.30204 -16.31297,0.30164 -17.6,-4e-4 -24.65916,-0.13647 -15.68703,-0.30237 z M 186.4882,492 186.5,432.5 l 30.5,-0.0217 30.5,-0.0217 -30.24214,0.28611 -30.24214,0.28612 -0.26966,59.23556 L 186.4764,551.5 Z m 33.7618,16.25543 c 4.8125,-0.18331 12.6875,-0.18331 17.5,0 4.8125,0.18332 0.875,0.3333 -8.75,0.3333 -9.625,0 -13.5625,-0.14998 -8.75,-0.3333 z m 30.5625,-0.93854 c 0.72187,-0.28887 1.58437,-0.25335 1.91667,0.0789 0.33229,0.33229 -0.25834,0.56864 -1.3125,0.52522 -1.16495,-0.048 -1.4019,-0.28494 -0.60417,-0.60416 z M 238.75,488.33772 c 0.6875,-0.27741 1.8125,-0.27741 2.5,0 0.6875,0.27741 0.125,0.50439 -1.25,0.50439 -1.375,0 -1.9375,-0.22698 -1.25,-0.50439 z M 256.15789,473 c 0,-1.375 0.22698,-1.9375 0.50439,-1.25 0.27741,0.6875 0.27741,1.8125 0,2.5 -0.27741,0.6875 -0.50439,0.125 -0.50439,-1.25 z m 25,-3 c 0,-1.375 0.22698,-1.9375 0.50439,-1.25 0.27741,0.6875 0.27741,1.8125 0,2.5 -0.27741,0.6875 -0.50439,0.125 -0.50439,-1.25 z m -25.07894,-2.58333 c 0.048,-1.16495 0.28494,-1.4019 0.60416,-0.60417 0.28887,0.72187 0.25335,1.58438 -0.0789,1.91667 -0.33229,0.33229 -0.56864,-0.25834 -0.52522,-1.3125 z m 24,-6 c 0.048,-1.16495 0.28494,-1.4019 0.60416,-0.60417 0.28887,0.72187 0.25335,1.58438 -0.0789,1.91667 -0.33229,0.33229 -0.56864,-0.25834 -0.52522,-1.3125 z m -39.26645,-9.09978 c 0.72187,-0.28887 1.58437,-0.25335 1.91667,0.0789 0.33229,0.33229 -0.25834,0.56864 -1.3125,0.52522 -1.16495,-0.048 -1.4019,-0.28494 -0.60417,-0.60416 z M 270.40499,442.75 268.5,440.5 l 2.25,1.90499 c 1.2375,1.04774 2.25,2.06024 2.25,2.25 0,0.80025 -0.80479,0.20945 -2.59501,-1.90499 z m -42.63708,-94.47473 c 1.79735,-0.22256 4.49735,-0.21797 6,0.0102 1.50265,0.22818 0.0321,0.41027 -3.26791,0.40466 -3.3,-0.006 -4.52944,-0.1923 -2.73209,-0.41486 z M 189,332.5 c -2.42903,-2.475 -4.19142,-4.5 -3.91642,-4.5 0.275,0 2.48739,2.025 4.91642,4.5 2.42903,2.475 4.19142,4.5 3.91642,4.5 -0.275,0 -2.48739,-2.025 -4.91642,-4.5 z m 40.8125,-5.18311 c 0.72187,-0.28887 1.58437,-0.25335 1.91667,0.0789 0.33229,0.33229 -0.25834,0.56864 -1.3125,0.52522 -1.16495,-0.048 -1.4019,-0.28494 -0.60417,-0.60416 z M 209.87244,320.25 c -1.24387,-1.58606 -1.2085,-1.62143 0.37756,-0.37756 1.66575,1.30637 2.19548,2.12756 1.37244,2.12756 -0.20765,0 -0.99515,-0.7875 -1.75,-1.75 z m -4,-4 c -1.24387,-1.58606 -1.2085,-1.62143 0.37756,-0.37756 1.66575,1.30637 2.19548,2.12756 1.37244,2.12756 -0.20765,0 -0.99515,-0.7875 -1.75,-1.75 z M 263.15789,291 c 0,-1.375 0.22698,-1.9375 0.50439,-1.25 0.27741,0.6875 0.27741,1.8125 0,2.5 -0.27741,0.6875 -0.50439,0.125 -0.50439,-1.25 z m -65.84802,-4.5 c 0.006,-3.3 0.1923,-4.52944 0.41486,-2.73209 0.22256,1.79735 0.21797,4.49735 -0.0102,6 -0.22818,1.50265 -0.41027,0.0321 -0.40466,-3.26791 z m 65.84802,-4.5 c 0,-1.375 0.22698,-1.9375 0.50439,-1.25 0.27741,0.6875 0.27741,1.8125 0,2.5 -0.27741,0.6875 -0.50439,0.125 -0.50439,-1.25 z m -10.7208,-28.25 -2.93709,-3.25 3.25,2.93709 c 3.02946,2.73778 3.70965,3.56291 2.93709,3.56291 -0.1721,0 -1.6346,-1.4625 -3.25,-3.25 z M 208,253.5 c 1.29175,-1.375 2.57363,-2.5 2.84863,-2.5 0.275,0 -0.55688,1.125 -1.84863,2.5 -1.29175,1.375 -2.57363,2.5 -2.84863,2.5 -0.275,0 0.55688,-1.125 1.84863,-2.5 z m 14.8125,-8.18311 c 0.72187,-0.28887 1.58437,-0.25335 1.91667,0.0789 0.33229,0.33229 -0.25834,0.56864 -1.3125,0.52522 -1.16495,-0.048 -1.4019,-0.28494 -0.60417,-0.60416 z m 14,0 c 0.72187,-0.28887 1.58437,-0.25335 1.91667,0.0789 0.33229,0.33229 -0.25834,0.56864 -1.3125,0.52522 -1.16495,-0.048 -1.4019,-0.28494 -0.60417,-0.60416 z M 270.94617,239.25 267.5,235.5 l 3.75,3.44617 c 2.0625,1.89539 3.75,3.58289 3.75,3.75 0,0.76362 -0.84622,0.0443 -4.05383,-3.44617 z M 189,239.5 c 1.29175,-1.375 2.57363,-2.5 2.84863,-2.5 0.275,0 -0.55688,1.125 -1.84863,2.5 -1.29175,1.375 -2.57363,2.5 -2.84863,2.5 -0.275,0 0.55688,-1.125 1.84863,-2.5 z m 39.76166,-16.20726 c 1.24391,-0.23919 3.04391,-0.23011 4,0.0202 0.95609,0.25029 -0.0617,0.446 -2.26166,0.4349 -2.2,-0.0111 -2.98225,-0.21589 -1.73834,-0.45508 z" id="path224"/>
        <path style="fill:#fe7159" d="m 181,903.47012 v -59.52987 l 12.60385,0.27987 L 206.2077,844.5 231.35385,884.92947 256.5,925.35895 256.76122,884.67947 257.02243,844 H 269.01122 281 V 903.5 963 H 268.21696 255.43392 L 230.57484,923 C 216.90234,901 205.32971,883 204.85788,883 204.38605,883 204,901 204,923 v 40 H 192.5 181 Z M 188.36316,756.5 c -0.2102,-0.55 -0.2654,-27.325 -0.12267,-59.5 L 188.5,638.5 232.75,638.2396 277,637.9792 V 648.4896 659 H 245.51905 214.0381 l -0.55992,2.25 c -0.30796,1.2375 -0.42903,7.2 -0.26905,13.25 l 0.29087,11 29.25,0.2651 29.25,0.26511 V 696 705.96979 L 242.75,706.2349 213.5,706.5 v 14.5 14.5 l 32.78369,0.26371 32.7837,0.2637 -0.2837,10.50896 -0.28369,10.50895 -44.87733,0.22734 C 204.41505,757.42062 188.6119,757.15083 188.36316,756.5 Z M 187,492.45058 v -59.54942 l 33.75,0.29942 33.75,0.29942 5.54563,2.60111 c 14.93086,7.00315 21.81723,19.49982 20.69459,37.55443 -0.89654,14.41846 -7.23045,24.31667 -19.47643,30.43645 l -6.76379,3.38013 -21.25,0.3634 -21.25,0.36341 V 530.09946 552 H 199.5 187 Z m 57.47745,-4.56596 c 5.66457,-1.57261 11.08184,-7.31658 11.99435,-12.71771 1.68569,-9.97753 -1.88554,-17.63296 -9.93043,-21.28725 -3.34663,-1.52016 -6.66296,-1.83951 -19.29137,-1.8577 L 212,452 v 18.5 18.5 l 14.25,-0.006 c 7.8375,-0.003 16.03985,-0.50248 18.22745,-1.1098 z M 216,346.96947 c -2.475,-0.5078 -8.14876,-2.72388 -12.60835,-4.92462 -14.11747,-6.96676 -24.57944,-20.2772 -29.11713,-37.04485 -1.285,-4.74831 -1.73627,-10.00339 -1.67452,-19.5 0.0729,-11.2053 0.44791,-14.10443 2.71668,-21 6.79278,-20.64561 20.5117,-33.96638 40.14342,-38.97838 7.77427,-1.98478 22.20844,-1.94071 30.47601,0.093 27.36306,6.73108 44.5768,32.83541 42.7598,64.84445 -1.51465,26.68263 -13.83783,45.09658 -36.19591,54.08583 -6.17007,2.48073 -8.48201,2.84603 -19.5,3.08111 -6.875,0.14668 -14.525,-0.14878 -17,-0.65658 z m 26.17052,-21.61194 c 14.03787,-4.40465 22.8897,-22.18756 21.41121,-43.01411 -1.06263,-14.96868 -5.9172,-25.79248 -14.19371,-31.64648 -6.41132,-4.53474 -9.78666,-5.53443 -18.9783,-5.62086 -7.10834,-0.0668 -8.83303,0.29508 -14.20993,2.98195 -12.54535,6.26898 -18.6985,19.14064 -18.61578,38.94197 0.12653,30.28459 18.88454,46.42201 44.58651,38.35753 z" id="path220"/>
        <path style="fill:#000000" d="m 572.7389,1073.4687 c -0.8489,-0.8489 -5.2872,-6.8208 -9.863,-13.2709 -4.5757,-6.4501 -10.8728,-14.3369 -13.9936,-17.5263 l -5.6742,-5.7988 -20.854,-2e-4 c -27.8743,-2e-4 -35.3009,-1.3912 -50.8541,-9.5249 l -8,-4.1837 -21.8477,-0.6982 c -22.6132,-0.7226 -24.514,-1.0975 -26.7507,-5.2769 -1.0869,-2.0309 -0.9034,-2.5195 1.6895,-4.4986 4.1973,-3.2036 13.2924,-13.0147 13.9678,-15.0675 0.3167,-0.9625 1.1421,-1.75 1.8342,-1.75 0.692,0 2.2915,-1.0998 3.5543,-2.444 1.8417,-1.9604 2.1619,-3.0981 1.6182,-5.75 -0.3728,-1.8183 -1.0866,-8.256 -1.5862,-14.306 -1.0359,-12.5439 -2.081,-16.9525 -6.3574,-26.8186 -0.9103,-2.1003 -1.3961,-4.2378 -1.0795,-4.75 0.3165,-0.5123 5.3865,-0.9341 11.2665,-0.9375 6.6857,0 11.6276,-0.4843 13.191,-1.2824 1.375,-0.702 4.525,-1.8676 7,-2.5902 2.475,-0.7227 8.1,-2.4458 12.5,-3.829 8.2248,-2.5857 7.6368,-2.5306 57,-5.3459 8.8,-0.5019 21.106,-1.2577 27.3466,-1.6795 l 11.3466,-0.7669 1.2888,-3.7594 c 2.3625,-6.8914 5.203,-9.3178 14.5067,-12.392 4.3626,-1.4415 7.0669,-1.854 8.1955,-1.25 0.9264,0.4958 3.4873,0.9014 5.691,0.9014 2.2037,0 4.2849,0.45 4.6248,1 0.3399,0.55 1.4364,1 2.4366,1 1.0002,0 2.3787,0.675 3.0634,1.5 0.8812,1.0619 3.2137,1.5 7.9849,1.5 6.0237,0 7.1533,0.328 10.6276,3.0853 2.1381,1.6969 4.6957,3.9503 5.6835,5.0075 2.2622,2.4213 5.3332,1.7587 12.2009,-2.6324 2.7517,-1.7594 9.7281,-5.5553 15.5031,-8.4353 5.775,-2.88 11.2814,-5.6388 12.2364,-6.1307 0.9551,-0.4919 7.0734,-0.8944 13.5964,-0.8944 15.3645,0 18.0007,1.1932 23.198,10.5 2.2326,3.998 6.2222,14.5803 5.6955,15.1071 -0.1534,0.1534 -4.5421,2.442 -9.7526,5.0859 -5.757,2.9212 -9.6005,5.4936 -9.797,6.557 -0.2237,1.2109 0.3195,1.75 1.7635,1.75 1.1478,0 2.8683,0.4016 3.8234,0.8924 2.7123,1.3938 13.916,3.2725 23.0156,3.8593 4.5536,0.2936 8.5177,0.9196 8.809,1.3911 0.6936,1.1222 9.1354,1.1135 9.8298,-0.01 0.2949,-0.477 2.55,-1.0943 5.0115,-1.3718 3.5142,-0.3961 6.6216,-2.0367 14.4675,-7.6383 5.4956,-3.9236 10.2772,-7.5954 10.6258,-8.1594 0.8262,-1.3367 21.4881,-14.7499 28.1125,-18.2499 7.5636,-3.9962 16.1673,-3.449 20.601,1.3101 1.4,1.5026 1.7637,3.6574 1.7637,10.4484 0,4.7055 -0.4358,9.3368 -0.9685,10.2918 -1.6319,2.9259 -4.0315,11.162 -4.0315,13.8371 0,1.392 -0.4527,3.3768 -1.0061,4.4107 -1.5089,2.8194 -1.6682,15.7144 -0.2121,17.1705 0.67,0.67 1.2201,1.9156 1.2224,2.7681 0,0.8525 1.031,3.575 2.2859,6.05 6.3467,12.5167 7.8753,25.4001 3.8158,32.1607 -1.2089,2.0134 -2.9382,3.9447 -3.8429,4.2919 -4.5148,1.7325 -25.2827,-3.7388 -32.263,-8.4996 -1.375,-0.9378 -4.075,-2.5698 -6,-3.6267 -1.925,-1.0569 -7.325,-4.398 -12,-7.4246 -10.3337,-6.6901 -14.2208,-7.9017 -25.3517,-7.9017 -7.8713,0 -11.3816,0.5 -21.6483,3.0835 -1.925,0.4844 -6.65,1.5999 -10.5,2.4789 -3.85,0.8789 -7.7875,1.8173 -8.75,2.0853 -2.4098,0.6708 -2.295,4.3523 0.1357,4.3523 1.0371,0 3.1746,0.6723 4.75,1.4939 1.5754,0.8216 3.5618,1.4966 4.4143,1.5 2.8108,0.011 3.9506,2.3316 3.9081,7.9561 -0.057,7.5216 -3.9093,14.2797 -11.0018,19.3 -8.8554,6.2681 -13.3447,4.984 -27.9563,-7.9963 -0.825,-0.7329 -3.7136,-2.8649 -6.419,-4.7378 -3.8678,-2.6776 -5.3153,-3.1933 -6.7732,-2.413 -2.0967,1.1221 -10.8078,12.7167 -10.8078,14.3854 0,1.6928 -8.3677,8.2749 -12.7476,10.0274 -3.2162,1.2869 -7.1319,1.501 -21.3456,1.1673 -9.5737,-0.2247 -20.3318,-0.888 -23.9068,-1.474 -17.2503,-2.8273 -21.2188,-1.7657 -12.5,3.3439 4.4077,2.5831 4.5,2.7425 4.5,7.7778 0,6.4404 -3.5765,13.8558 -9.4744,19.6442 -3.8249,3.7538 -4.3955,4.0123 -5.7867,2.6211 z M 964.5,1072.2545 c -20.7911,-3.7391 -34.3346,-16.529 -36.1429,-34.1318 l -0.642,-6.25 h 12.0289 12.0289 l 0.6625,4.4175 c 0.9793,6.5304 5.5836,12.244 12.371,15.3514 4.783,2.1897 7.0928,2.5947 14.79893,2.5947 7.837,0 9.895,-0.3737 14.5208,-2.6369 6.34697,-3.1053 8.87387,-6.781 8.87387,-12.9085 0,-8.1947 -5.25917,-12.0263 -22.99997,-16.7565 -26.05503,-6.947 -32.25283,-9.4883 -39.55333,-16.2176 -6.1842,-5.7004 -8.7821,-12.9304 -8.2083,-22.8441 1.1789,-20.366 18.476,-33.3675 44.26163,-33.2696 18.0246,0.068 29.61047,4.2335 38.33747,13.7822 5.0557,5.5318 7.388,10.7575 8.5858,19.2374 l 0.6003,4.25 h -12.384 -12.38397 l -0.6272,-3.9226 c -1.4148,-8.8474 -10.0097,-14.3215 -22.5738,-14.3774 -8.46133,-0.038 -14.74963,2.3788 -17.63003,6.7748 -2.1822,3.3305 -2.7814,9.498 -1.2115,12.4705 2.494,4.7224 6.2381,6.1917 34.49173,13.5356 15.08197,3.9203 19.70397,6.0112 25.88797,11.7114 6.0877,5.6115 8.1297,9.3106 9.3474,16.9337 1.2974,8.1209 -0.023,16.3615 -3.7149,23.1776 -8.6256,15.9269 -32.72097,23.7548 -58.7253,19.0782 z M 928,805.37273 v -59.5 l 28.25,0.0174 c 31.17903,0.0192 36.75153,0.6963 48.1085,5.84582 12.6068,5.71617 22.9739,19.17654 26.7581,34.74174 1.8606,7.65335 1.5813,30.64524 -0.4665,38.39508 -5.3514,20.25203 -18.0424,33.74153 -36.19157,38.46883 -4.6526,1.2118 -12.1962,1.5311 -36.16863,1.5311 H 928 Z m 59.61223,37.02253 c 17.10087,-5.07843 24.92277,-29.39156 17.34677,-53.91981 -2.3528,-7.61742 -7.79817,-14.45971 -14.04327,-17.64572 -5.055,-2.57888 -14.4206,-3.94049 -27.16573,-3.94945 l -10.75,-0.008 v 38.5 38.5 h 14.8185 c 10.16003,0 16.38263,-0.46447 19.79373,-1.47747 z M 487.6439,769.67471 c -0.3391,-1.26609 -0.6289,-3.87698 -0.6439,-5.80198 -0.037,-4.72472 -0.9967,-8 -2.3445,-8 -0.6112,0 -4.4962,3.34473 -8.6334,7.43272 -6.4253,6.34894 -7.9099,7.35516 -10.1814,6.90076 -4.9589,-0.99196 -4.0844,-3.64149 3.7803,-11.45369 4.0585,-4.03135 7.379,-7.95672 7.379,-8.72304 0,-1.13934 -1.5949,-1.26311 -8.75,-0.67904 l -8.75,0.71425 2.9371,-3.09598 c 1.6154,-1.70279 3.4976,-3.09598 4.1826,-3.09598 0.685,0 1.5312,-0.9 1.8803,-2 0.3491,-1.1 1.1858,-2 1.8592,-2 0.6734,0 3.2118,-2.025 5.6408,-4.5 2.429,-2.475 4.9064,-4.5 5.5053,-4.5 0.5988,0 2.8465,-1.8 4.9947,-4 2.1482,-2.2 4.4686,-4 5.1563,-4 0.6877,0 4.532,-2.91354 8.5428,-6.47454 4.0749,-3.61778 8.6181,-6.74597 10.2967,-7.0897 1.6523,-0.33835 6.0096,-1.27858 9.6829,-2.08941 l 6.6788,-1.47424 41.2055,-40.18605 c 22.663,-22.10233 41.8609,-40.33943 42.662,-40.52687 0.8237,-0.19271 1.3085,0.24185 1.1158,1 -0.1874,0.73744 -18.6968,19.3362 -41.1319,41.33057 -22.4351,21.99436 -40.9756,40.89436 -41.2011,42 -0.2255,1.10563 -0.5779,4.71024 -0.783,8.01024 -0.409,6.58007 -3.3249,11.8823 -10.1444,18.44617 -1.9692,1.89539 -3.5804,3.87121 -3.5804,4.39071 0,0.5195 -1.5916,2.79372 -3.5368,5.05383 -1.9453,2.26011 -5.7703,6.70155 -8.5,9.86988 -2.7298,3.16832 -4.9632,6.20582 -4.9632,6.75 0,0.54417 -0.6861,0.98941 -1.5247,0.98941 -0.8387,0 -1.9159,1.0125 -2.3939,2.25 -0.4781,1.2375 -1.9833,3.28589 -3.3451,4.55198 l -2.4758,2.30197 z M 746.5,761.59232 c -1.1,-0.67077 -10.146,-5.49459 -20.1023,-10.71959 -9.9563,-5.225 -19.1405,-10.20276 -20.4092,-11.06168 l -2.3069,-1.56168 4.6592,-2.73048 c 2.5626,-1.50176 4.6592,-3.09107 4.6592,-3.53181 0,-0.44073 -2.2644,-2.33426 -5.0321,-4.20784 -4.0308,-2.72867 -4.9275,-3.83397 -4.5065,-5.55472 0.2891,-1.18152 -0.097,-3.34735 -0.8569,-4.81296 -1.1512,-2.21893 -89.6019,-93.02198 -160.1988,-164.45924 l -18.2037,-18.42042 -7.851,-0.59182 c -8.4189,-0.63464 -9.9182,-1.36803 -19.5558,-9.56553 -2.5877,-2.201 -6.9832,-5.80182 -9.7678,-8.00182 -2.7846,-2.2 -7.5347,-6.1375 -10.5557,-8.75 -3.0211,-2.6125 -5.9381,-4.75 -6.4823,-4.75 -0.5442,0 -0.9894,-0.675 -0.9894,-1.5 0,-0.825 -0.4343,-1.5 -0.9652,-1.5 -0.5309,0 -2.6316,-1.4625 -4.6684,-3.25 l -3.7032,-3.25 2.9184,-0.63169 c 1.6051,-0.34742 4.9434,-0.69181 7.4184,-0.76531 8.3639,-0.24837 8.3322,-1.20267 -0.3306,-9.92496 -6.6672,-6.71302 -7.7815,-8.3148 -7.5,-10.78123 0.2387,-2.09135 0.9406,-2.98361 2.5244,-3.209 1.6338,-0.23249 4.0275,1.61819 9.3771,7.25 3.9509,4.15921 7.6209,7.56219 8.1557,7.56219 0.5837,0 0.8327,-3.59773 0.6229,-9.0005 -0.1922,-4.95028 -0.09,-9.00028 0.2262,-9 0.8975,7.8e-4 4.9243,4.52275 4.9243,5.52978 0,0.49521 0.8823,1.81621 1.9607,2.93555 2.3981,2.48914 10.1359,11.72709 15.5393,18.55196 2.2,2.77877 5.5965,6.94925 7.5478,9.26775 1.9513,2.3185 4.3107,5.34046 5.2431,6.71546 0.9324,1.375 2.3722,3.42808 3.1996,4.5624 0.8274,1.13432 2.2175,5.85932 3.0891,10.5 l 1.5847,8.4376 43.6679,44.92256 c 24.0173,24.7074 44.261,45.11763 44.986,45.35606 0.7258,0.23869 1.1882,-0.1759 1.029,-0.92256 -0.1591,-0.74583 19.8852,-21.13905 44.5428,-45.31825 24.6575,-24.17921 45.907,-45.37169 47.221,-47.09439 2.5155,-3.29798 3.0629,-5.44342 1.389,-5.44342 -2.1103,0 -0.7621,-1.62642 4.0599,-4.89771 2.7546,-1.86874 4.8502,-3.87205 4.6569,-4.45181 -0.1932,-0.57976 -2.4967,-1.60139 -5.1187,-2.27028 -2.6221,-0.66889 -4.9368,-1.38557 -5.1438,-1.59261 -0.2071,-0.20704 10.9654,-6.50953 24.8278,-14.00554 13.8623,-7.49601 25.3711,-13.46219 25.5751,-13.25818 0.204,0.20401 -0.5196,1.8571 -1.608,3.67353 -1.0884,1.81643 -5.9258,10.9526 -10.7496,20.3026 -4.8239,9.35 -9.4785,18.23207 -10.3436,19.73793 l -1.573,2.73793 -2.7933,-4.48793 c -1.5364,-2.46836 -3.2338,-4.48793 -3.7721,-4.48793 -0.5384,0 -2.6472,2.2348 -4.6864,4.96622 -2.7415,3.67212 -4.0308,4.69807 -4.9476,3.93717 -0.8678,-0.72017 -2.1442,-0.56144 -4.2525,0.52883 -1.657,0.85684 -24.2085,22.33603 -50.1145,47.73154 l -47.1019,46.17365 4.2927,4.53229 c 20.8446,22.00841 83.256,85.04033 85.2706,86.11853 1.9522,1.04475 2.8402,1.09354 3.729,0.20482 0.8887,-0.88871 2.0947,0.14187 5.0638,4.32726 2.1436,3.02159 4.279,5.25795 4.7454,4.96969 0.4664,-0.28826 1.4035,-3.00646 2.0825,-6.04045 0.679,-3.03399 1.5505,-5.16381 1.9367,-4.73295 0.8484,0.94643 26.9646,49.22448 26.9646,49.84631 0,0.76214 -1.4337,0.41669 -3.5,-0.84332 z M 963,660.30613 c -20.1373,-4.36081 -35.6833,-19.83107 -41.6362,-41.4334 -2.7949,-10.14228 -2.5589,-29.28623 0.4802,-38.96476 3.4863,-11.10251 7.4462,-18.2033 14.1448,-25.36407 10.5949,-11.32599 23.975,-16.62835 42.03133,-16.65639 17.5388,-0.0272 30.46367,5.33309 41.62117,17.26143 11.3106,12.09202 15.8323,25.20381 15.7683,45.72379 -0.037,11.88347 -0.3622,14.46733 -2.7151,21.57841 -9.7132,29.35473 -37.99957,44.71865 -69.6945,37.85499 z m 28.50003,-22.30859 c 10.69357,-5.12156 16.42337,-14.01425 18.52107,-28.74496 3.1811,-22.33927 -4.0512,-40.84417 -18.77947,-48.05007 -4.6923,-2.29575 -6.8643,-2.72669 -13.6605,-2.71037 -17.71533,0.0426 -28.57193,10.32774 -32.21093,30.51541 -3.9406,21.86156 2.9807,41.08534 17.498,48.60051 5.6115,2.90486 7.2062,3.26458 14.46923,3.26388 6.9302,-6.7e-4 9.0685,-0.43466 14.1626,-2.8744 z M 963.5684,454.70727 c -13.4771,-2.5737 -28.1362,-13.18146 -35.5595,-25.73203 -6.2608,-10.58504 -8.5184,-20.13864 -8.413,-35.60251 0.076,-11.19828 0.4534,-14.10875 2.7208,-21 8.6066,-26.15862 28.2181,-40.52993 55.24723,-40.48522 27.96837,0.0463 47.93577,15.36871 56.01597,42.98522 1.4724,5.03226 1.8889,9.54838 1.8447,20 -0.05,11.85888 -0.382,14.48205 -2.7301,21.57841 -6.5166,19.694 -21.7536,33.9957 -40.43717,37.95493 -7.5295,1.59556 -21.16153,1.73868 -28.68893,0.3012 z m 28.87653,-22.80786 c 12.27757,-5.94349 19.49897,-22.48158 18.14637,-41.5583 -1.3539,-19.09614 -9.0351,-31.79787 -21.79157,-36.03492 -7.259,-2.41105 -19.79213,-1.66465 -26.14243,1.55689 -9.2374,4.68622 -15.6106,15.30896 -17.6923,29.48906 -3.1352,21.35674 4.8827,41.34633 18.9623,47.27526 8.2118,3.45798 20.51963,3.14379 28.51763,-0.72799 z m -235.89663,-4.3486 c -3.8235,-2.84794 -8.8158,-6.97808 -11.094,-9.17808 -4.1116,-3.97046 -4.1514,-4.07894 -5.3901,-14.69048 -1.7098,-14.64788 -4.4089,-20.13224 -14.5853,-29.6358 -8.1191,-7.58242 -7.1935,-7.05779 -40.5963,-23.00933 -12.7018,-6.06578 -15.6853,-8.43184 -20.3826,-16.16439 -1.9664,-3.23706 -4.9013,-7.00136 -6.522,-8.3651 -6.3419,-5.33629 -22.1738,-9.54288 -58.978,-15.67059 -37.2906,-6.2087 -67.242,-13.62351 -82.8882,-20.51992 -10.5649,-4.65672 -32.99,-13.44439 -34.3085,-13.44439 -1.3062,0 -0.5635,12.76761 1.2091,20.78526 1.0438,4.72151 1.7519,5.7163 6.6387,9.32638 6.0747,4.4876 7.1638,6.20157 5.3383,8.40109 -2.6332,3.17285 -7.2834,1.39369 -18.7867,-7.18778 -8.7576,-6.53309 -9.7488,-8.57047 -8.3488,-17.1592 1.2866,-7.89253 0.5503,-9.98779 -5.91,-16.81861 -5.9873,-6.33064 -6.4754,-9.50381 -1.8314,-11.90533 7.5034,-3.88015 24.9002,-2.56647 41.3126,3.11963 14.8153,5.13282 17.3771,4.71715 18.8683,-3.06144 0.3163,-1.65 3.7628,-8.625 7.6589,-15.5 9.8636,-17.40523 11.2203,-21.33396 11.8101,-34.20051 l 0.4904,-10.70051 -2.8764,-2.86758 c -2.308,-2.30092 -4.6549,-3.21647 -11.8764,-4.63313 -11.4122,-2.23874 -17.0823,-4.67717 -18.0169,-7.74818 -0.3934,-1.29255 -1.788,-3.78257 -3.0992,-5.53337 -1.3111,-1.7508 -2.3839,-3.37625 -2.3839,-3.61212 0,-0.23586 6.4125,-0.67382 14.25,-0.97325 9.4413,-0.3607 15.9373,-1.11451 19.25,-2.23381 3.386,-1.14407 9.7873,-1.86052 19.8306,-2.21951 13.2954,-0.47524 15.073,-0.74996 17.1729,-2.65407 1.2883,-1.16818 3.727,-3.17069 5.4194,-4.45002 3.4835,-2.63329 3.9853,-6.0645 1.6902,-11.5574 -1.762,-4.21723 -5.3073,-6.72127 -14.9258,-10.54215 -12.4803,-4.9577 -24.3159,-11.03949 -28.3852,-14.58593 -3.7797,-3.29402 -3.7923,-3.33005 -2.1311,-6.12465 2.288,-3.8491 3.3434,-3.95034 4.7894,-0.45946 1.2878,3.10897 9.3873,10.09565 11.7037,10.09565 1.0367,0 1.3359,-2.56255 1.3359,-11.44098 0,-7.02443 0.4117,-11.69544 1.0665,-12.10014 1.556,-0.96165 1.7303,-0.57301 3.4076,7.59747 2.1889,10.6628 4.1812,15.42119 7.1138,16.99072 4.0903,2.18905 5.9121,0.28702 5.9121,-6.17251 0,-6.12136 0.7924,-7.87456 3.559,-7.87456 2.2272,0 2.4669,1.9037 0.815,6.47188 -0.947,2.61882 -0.7999,3.75301 0.925,7.13406 3.9162,7.67636 12.6817,14.0691 16.2594,11.85799 0.6089,-0.37634 1.9539,-2.65969 2.9888,-5.0741 1.8921,-4.41396 4.9528,-6.00286 4.9528,-2.5711 0,1.0003 -1.8195,4.7128 -4.0433,8.25 -5.9494,9.4632 -10.9567,20.37008 -10.9567,23.86573 0,3.57292 0.7103,3.7347 5.1928,1.18272 4.2758,-2.43428 8.8072,-3.49906 8.8072,-2.06951 0,1.89569 -5.2202,8.01483 -8.114,9.51128 -1.5327,0.79258 -3.6932,1.44105 -4.8012,1.44105 -3.5614,0 -4.3181,3.53469 -4.7563,22.21804 -0.6234,26.57319 2.2075,35.45112 15.5917,48.89634 6.3248,6.35363 9.3183,8.46149 18.0798,12.73065 19.0731,9.29365 46.3705,17.00689 71.5,20.20328 7.1875,0.91423 10.8542,2.04522 18.207,5.61604 14.5755,7.07843 21.3092,6.85281 37.4341,-1.25425 4.2404,-2.13198 4.7497,-2.78629 5.8998,-7.58067 l 1.2588,-5.24729 3.3322,3.85477 c 4.1169,4.76257 5.2212,9.61216 2.9708,13.04669 -2.4026,3.66685 -6.322,5.27737 -14.6467,6.01843 -14.8319,1.32035 -16.7964,2.79927 -14.4482,10.8768 l 1.6127,5.54749 -3.5602,7.22682 c -2.9904,6.07009 -3.5587,8.27683 -3.5505,13.78684 0.017,11.28078 5.2979,19.5616 21.6085,33.88223 4.4651,3.92032 8.6924,8.51372 9.394,10.20756 0.8749,2.11215 1.0827,5.58228 0.6614,11.04528 -1.0993,14.25648 2.5145,25.12094 10.0373,30.17547 4.6108,3.09793 6.8743,7.78737 5.2362,10.84815 -1.467,2.74109 -2.6484,2.35248 -10.3989,-3.42059 z m 171.054,-193.92808 c -2.0746,-7.8375 -5.0368,-18.975 -6.5826,-24.75 -1.5458,-5.775 -5.818,-21.975 -9.4937,-36 -3.6757,-14.025 -7.5017,-28.425 -8.5021,-32 -1.0004,-3.575 -2.0987,-7.7375 -2.4405,-9.25 l -0.6215,-2.75 h 12.4318 12.4318 l 2.5289,10.75 c 2.191,9.31339 11.1887,47.95226 14.9445,64.17583 0.6908,2.9842 1.7433,5.58824 2.3388,5.78674 0.5964,0.19878 1.5311,-1.78942 2.0808,-4.42583 0.7945,-3.81015 13.9122,-55.60444 18.3711,-72.53674 l 0.9875,-3.75 h 11.92293 11.9229 l 0.9534,3.75 c 0.5243,2.0625 5.1194,20.5125 10.21117,41 5.0918,20.4875 9.6128,37.25 10.0466,37.25 0.4338,0 1.2036,-1.6875 1.7106,-3.75 0.9122,-3.71063 4.3079,-18.03687 10.0146,-42.25 1.6203,-6.875 4.2075,-17.7875 5.7494,-24.25 l 2.8033,-11.75 h 12.2004 c 12.1388,0 12.1977,0.0114 11.6833,2.25 -0.2843,1.2375 -3.1225,11.925 -6.307,23.75 -3.1845,11.825 -8.8008,32.75 -12.4807,46.5 -3.6798,13.75 -7.5571,28.15 -8.6161,32 -1.059,3.85 -2.3899,8.70078 -2.9576,10.77951 l -1.0323,3.77951 -12.5691,-0.27951 -12.56907,-0.27951 -10.0284,-40.5 c -5.5156,-22.275 -10.1875,-40.6875 -10.3819,-40.91667 -1.0236,-1.20653 -2.3705,3.79206 -14.79813,54.91667 -3.1418,12.925 -5.9324,24.2875 -6.2013,25.25 -0.4329,1.54956 -1.9487,1.75 -13.2343,1.75 h -12.7455 z" id="path214"/>
      </g>
    </g>
  </g>
</svg>